<?xml version="1.0" encoding="UTF-8" standalone="no"?>
<!-- Created with Inkscape (http://www.inkscape.org/) -->

<svg
   xmlns:dc="http://purl.org/dc/elements/1.1/"
   xmlns:cc="http://creativecommons.org/ns#"
   xmlns:rdf="http://www.w3.org/1999/02/22-rdf-syntax-ns#"
   xmlns:svg="http://www.w3.org/2000/svg"
   xmlns="http://www.w3.org/2000/svg"
   xmlns:sodipodi="http://sodipodi.sourceforge.net/DTD/sodipodi-0.dtd"
   xmlns:inkscape="http://www.inkscape.org/namespaces/inkscape"
   width="744.09448819"
   height="1052.3622047"
   id="svg2"
   version="1.1"
   inkscape:version="0.48.1 r9760"
   sodipodi:docname="invertedcircle-prototype.svg">
  <defs
     id="defs4" />
  <sodipodi:namedview
     id="base"
     pagecolor="#ffffff"
     bordercolor="#666666"
     borderopacity="1.0"
     inkscape:pageopacity="0.0"
     inkscape:pageshadow="2"
     inkscape:zoom="0.35"
     inkscape:cx="-132.14286"
     inkscape:cy="390.93729"
     inkscape:document-units="px"
     inkscape:current-layer="layer1"
     showgrid="false"
     showborder="false"
     inkscape:window-width="1366"
     inkscape:window-height="724"
     inkscape:window-x="-1"
     inkscape:window-y="26"
     inkscape:window-maximized="1"
     showguides="false">
    <inkscape:grid
       type="xygrid"
       id="grid3904"
       empspacing="5"
       visible="true"
       enabled="true"
       snapvisiblegridlinesonly="true" />
  </sodipodi:namedview>
  <metadata
     id="metadata7">
    <rdf:RDF>
      <cc:Work
         rdf:about="">
        <dc:format>image/svg+xml</dc:format>
        <dc:type
           rdf:resource="http://purl.org/dc/dcmitype/StillImage" />
        <dc:title></dc:title>
      </cc:Work>
    </rdf:RDF>
  </metadata>
  <g
     inkscape:label="Layer 1"
     inkscape:groupmode="layer"
     id="layer1">
    <path
       style="font-size:medium;font-style:normal;font-variant:normal;font-weight:normal;font-stretch:normal;text-indent:0;text-align:start;text-decoration:none;line-height:normal;letter-spacing:normal;word-spacing:normal;text-transform:none;direction:ltr;block-progression:tb;writing-mode:lr-tb;text-anchor:start;baseline-shift:baseline;color:#000000;fill:#000000;fill-opacity:1;stroke:none;stroke-width:0.69999999;marker:none;visibility:visible;display:inline;overflow:visible;enable-background:accumulate;font-family:Sans;-inkscape-font-specification:Sans"
       d="m -440.5,392 c -53.64079,0.54319 -107.83134,15.33152 -156.71875,45.71875 -142.21791,88.3992 -185.8367,275.34459 -97.4375,417.5625 l 0.1875,0.3125 0.59375,-0.375 -0.1875,-0.3125 c -88.19949,-141.89661 -44.67786,-328.39426 97.21875,-416.59375 141.89661,-88.19949 328.42551,-44.67786 416.625,97.21875 88.199493,141.89661 44.67786,328.39426 -97.21875,416.59375 -141.57219,87.9978 -327.63851,44.91186 -416.09375,-96.375 l -0.1875,-0.3125 -0.59375,0.375 0.1875,0.3125 c 88.65557,141.60683 275.16969,184.7909 417.0625,96.59375 142.21791,-88.3992 185.836704,-275.34459 97.4375,-417.5625 C -237.63698,441.82575 -338.09485,390.963 -440.5,392 z"
       id="path2999"
       inkscape:connector-curvature="0" />
    <path
       sodipodi:type="arc"
       style="fill:none;stroke:#000000;stroke-width:0.96212559;stroke-linecap:square;stroke-linejoin:miter;stroke-miterlimit:4;stroke-opacity:1;stroke-dasharray:none;stroke-dashoffset:0"
       id="path3005"
       sodipodi:cx="-437.14285"
       sodipodi:cy="315.21933"
       sodipodi:rx="74.285713"
       sodipodi:ry="74.285713"
       d="m -500.23392,354.43521 a 74.285713,74.285713 0 1 1 0.12716,0.20383"
       sodipodi:start="2.5854595"
       sodipodi:end="8.8654107"
       sodipodi:open="true"
       transform="matrix(1.6889687,0,0,1.6889687,292.60639,-271.4619)" />
    <path
       sodipodi:type="arc"
       style="fill:none;stroke:#000000;stroke-width:1.81778593;stroke-linecap:square;stroke-linejoin:miter;stroke-miterlimit:4;stroke-opacity:1;stroke-dasharray:none;stroke-dashoffset:0"
       id="path3032"
       sodipodi:cx="-171.42857"
       sodipodi:cy="345.21933"
       sodipodi:rx="131.42857"
       sodipodi:ry="141.42857"
       d="m -283.05123,419.88033 a 131.42857,141.42857 0 1 1 1.91325,3.21466"
       sodipodi:start="2.5854595"
       sodipodi:end="8.841652"
       sodipodi:open="true"
       transform="matrix(0.55889575,0,0,0.54148162,-173.75694,167.56123)" />
    <path
       sodipodi:type="arc"
       style="fill:none;stroke:#000000;stroke-width:0.69999999;stroke-linecap:square;stroke-linejoin:miter;stroke-miterlimit:4;stroke-opacity:1;stroke-dasharray:none;stroke-dashoffset:0"
       id="path3032-2"
       sodipodi:cx="-171.42857"
       sodipodi:cy="345.21933"
       sodipodi:rx="131.42857"
       sodipodi:ry="141.42857"
       d="m -283.05123,419.88033 a 131.42857,141.42857 0 1 1 1.91325,3.21466"
       sodipodi:start="2.5854595"
       sodipodi:end="8.841652"
       sodipodi:open="true"
       transform="matrix(0.55889575,0,0,0.54148162,-515.61787,176.86167)" />
    <path
       sodipodi:type="arc"
       style="fill:none;stroke:#000000;stroke-width:3.08702506;stroke-linecap:square;stroke-linejoin:miter;stroke-miterlimit:4;stroke-opacity:1;stroke-dasharray:none;stroke-dashoffset:0"
       id="path3032-3"
       sodipodi:cx="-171.42857"
       sodipodi:cy="345.21933"
       sodipodi:rx="131.42857"
       sodipodi:ry="141.42857"
       d="m -283.05123,419.88033 a 131.42857,141.42857 0 1 1 1.91325,3.21466"
       sodipodi:start="2.5854595"
       sodipodi:end="8.841652"
       sodipodi:open="true"
       transform="matrix(0.25538484,0,0,0.24742753,-633.36261,365.24838)" />
    <path
       sodipodi:type="arc"
       style="fill:none;stroke:#000000;stroke-width:0.69999999;stroke-linecap:square;stroke-linejoin:miter;stroke-miterlimit:4;stroke-opacity:1;stroke-dasharray:none;stroke-dashoffset:0"
       id="path3032-2-9"
       sodipodi:cx="-171.42857"
       sodipodi:cy="345.21933"
       sodipodi:rx="131.42857"
       sodipodi:ry="141.42857"
       d="m -283.05123,419.88033 a 131.42857,141.42857 0 1 1 1.91325,3.21466"
       sodipodi:start="2.5854595"
       sodipodi:end="8.841652"
       sodipodi:open="true"
       transform="matrix(0.55889575,0,0,0.54148162,-672.76073,328.29024)" />
    <path
       sodipodi:type="arc"
       style="fill:none;stroke:#000000;stroke-width:0.96212559;stroke-linecap:square;stroke-linejoin:miter;stroke-miterlimit:4;stroke-opacity:1;stroke-dasharray:none;stroke-dashoffset:0"
       id="path3005-8"
       sodipodi:cx="-437.14285"
       sodipodi:cy="315.21933"
       sodipodi:rx="74.285713"
       sodipodi:ry="74.285713"
       d="m -500.23392,354.43521 a 74.285713,74.285713 0 1 1 0.12716,0.20383"
       sodipodi:start="2.5854595"
       sodipodi:end="8.8654107"
       sodipodi:open="true"
       transform="matrix(1.6889687,0,0,1.6889687,-130.25084,151.39534)" />
    <path
       sodipodi:type="arc"
       style="fill:none;stroke:#000000;stroke-width:0.96635519;stroke-linecap:square;stroke-linejoin:miter;stroke-miterlimit:4;stroke-opacity:1;stroke-dasharray:none;stroke-dashoffset:0"
       id="path3005-7"
       sodipodi:cx="-437.14285"
       sodipodi:cy="315.21933"
       sodipodi:rx="74.285713"
       sodipodi:ry="74.285713"
       d="m -500.23392,354.43521 a 74.285713,74.285713 0 1 1 0.12716,0.20383"
       sodipodi:start="2.5854595"
       sodipodi:end="8.8654107"
       sodipodi:open="true"
       transform="matrix(-1.3966574,0.98740416,-0.95435595,-1.3499115,-746.31666,1986.3807)" />
    <path
       sodipodi:type="arc"
       style="fill:none;stroke:#000000;stroke-width:0.77595526;stroke-linecap:square;stroke-linejoin:miter;stroke-miterlimit:4;stroke-opacity:1;stroke-dasharray:none;stroke-dashoffset:0"
       id="path3032-2-6"
       sodipodi:cx="-171.42857"
       sodipodi:cy="345.21933"
       sodipodi:rx="131.42857"
       sodipodi:ry="141.42857"
       d="m -283.05123,419.88033 a 131.42857,141.42857 0 1 1 1.91325,3.21466"
       sodipodi:start="2.5854595"
       sodipodi:end="8.841652"
       sodipodi:open="true"
       transform="matrix(-0.56129642,0.07283377,-0.06820265,-0.52560636,-688.03745,1223.3904)" />
    <path
       sodipodi:type="arc"
       style="fill:none;stroke:#000000;stroke-width:1.89791634;stroke-linecap:square;stroke-linejoin:miter;stroke-miterlimit:4;stroke-opacity:1;stroke-dasharray:none;stroke-dashoffset:0"
       id="path3032-3-8"
       sodipodi:cx="-171.42857"
       sodipodi:cy="345.21933"
       sodipodi:rx="131.42857"
       sodipodi:ry="141.42857"
       d="m -283.05123,419.88033 a 131.42857,141.42857 0 1 1 1.91325,3.21466"
       sodipodi:start="2.5854595"
       sodipodi:end="8.841652"
       sodipodi:open="true"
       transform="matrix(-0.25648182,0.03328106,-0.03116488,-0.24017339,-219.22961,1013.7539)" />
    <path
       sodipodi:type="arc"
       style="fill:none;stroke:#000000;stroke-width:1.42958346;stroke-linecap:square;stroke-linejoin:miter;stroke-miterlimit:4;stroke-opacity:1;stroke-dasharray:none;stroke-dashoffset:0"
       id="path3032-2-9-9"
       sodipodi:cx="-171.42857"
       sodipodi:cy="345.21933"
       sodipodi:rx="131.42857"
       sodipodi:ry="141.42857"
       d="m -283.05123,419.88033 a 131.42857,141.42857 0 1 1 1.91325,3.21466"
       sodipodi:start="2.5854595"
       sodipodi:end="8.841652"
       sodipodi:open="true"
       transform="matrix(-0.56129642,0.07283377,-0.06820265,-0.52560636,-164.59957,1045.8156)" />
    <path
       sodipodi:type="arc"
       style="fill:none;stroke:#000000;stroke-width:0.9663552;stroke-linecap:square;stroke-linejoin:miter;stroke-miterlimit:4;stroke-opacity:1;stroke-dasharray:none;stroke-dashoffset:0"
       id="path3005-8-6"
       sodipodi:cx="-437.14285"
       sodipodi:cy="315.21933"
       sodipodi:rx="74.285713"
       sodipodi:ry="74.285713"
       d="m -500.23392,354.43521 a 74.285713,74.285713 0 1 1 0.12716,0.20383"
       sodipodi:start="2.5854595"
       sodipodi:end="8.8654107"
       sodipodi:open="true"
       transform="matrix(-1.6962234,0.22010183,-0.21273505,-1.6394512,-683.28084,1281.1873)" />
    <path
       sodipodi:type="arc"
       style="fill:none;stroke:#000000;stroke-width:0.69999999;stroke-linecap:square;stroke-linejoin:miter;stroke-miterlimit:4;stroke-opacity:1;stroke-dasharray:none;stroke-dashoffset:0"
       id="path3032-3-8-0"
       sodipodi:cx="-171.42857"
       sodipodi:cy="345.21933"
       sodipodi:rx="131.42857"
       sodipodi:ry="141.42857"
       d="m -283.05123,419.88033 a 131.42857,141.42857 0 1 1 1.91325,3.21466"
       sodipodi:start="2.5854595"
       sodipodi:end="8.841652"
       sodipodi:open="true"
       transform="matrix(-0.25648182,0.03328106,-0.03116488,-0.24017339,-244.63816,532.40842)" />
    <path
       sodipodi:type="arc"
       style="fill:none;stroke:#000000;stroke-width:0.69999999;stroke-linecap:square;stroke-linejoin:miter;stroke-miterlimit:4;stroke-opacity:1;stroke-dasharray:none;stroke-dashoffset:0"
       id="path3032-2-9-9-6"
       sodipodi:cx="-171.42857"
       sodipodi:cy="345.21933"
       sodipodi:rx="131.42857"
       sodipodi:ry="141.42857"
       d="m -283.05123,419.88033 a 131.42857,141.42857 0 1 1 1.91325,3.21466"
       sodipodi:start="2.5854595"
       sodipodi:end="8.841652"
       sodipodi:open="true"
       transform="matrix(-0.56129642,0.07283377,-0.06820265,-0.52560636,-186.96308,694.86853)" />
    <path
       sodipodi:type="arc"
       style="fill:none;stroke:#000000;stroke-width:1.82577708;stroke-linecap:square;stroke-linejoin:miter;stroke-miterlimit:4;stroke-opacity:1;stroke-dasharray:none;stroke-dashoffset:0"
       id="path3032-2-9-9-9"
       sodipodi:cx="-171.42857"
       sodipodi:cy="345.21933"
       sodipodi:rx="131.42857"
       sodipodi:ry="141.42857"
       d="m -283.05123,419.88033 a 131.42857,141.42857 0 1 1 1.91325,3.21466"
       sodipodi:start="2.5854595"
       sodipodi:end="8.841652"
       sodipodi:open="true"
       transform="matrix(-0.56129642,0.07283377,-0.06820265,-0.52560636,-841.24879,1063.44)" />
    <path
       sodipodi:type="arc"
       style="fill:none;stroke:#000000;stroke-width:2.99671002;stroke-linecap:square;stroke-linejoin:miter;stroke-miterlimit:4;stroke-opacity:1;stroke-dasharray:none;stroke-dashoffset:0"
       id="path3032-3-8-5"
       sodipodi:cx="-171.42857"
       sodipodi:cy="345.21933"
       sodipodi:rx="131.42857"
       sodipodi:ry="141.42857"
       d="m -283.05123,419.88033 a 131.42857,141.42857 0 1 1 1.91325,3.21466"
       sodipodi:start="2.5854595"
       sodipodi:end="8.841652"
       sodipodi:open="true"
       transform="matrix(-0.25648182,0.03328106,-0.03116488,-0.24017339,-704.63817,1020.9799)" />
    <path
       sodipodi:type="arc"
       style="fill:none;stroke:#000000;stroke-width:1.23239953;stroke-linecap:square;stroke-linejoin:miter;stroke-miterlimit:4;stroke-opacity:1;stroke-dasharray:none;stroke-dashoffset:0"
       id="path3032-2-6-3"
       sodipodi:cx="-171.42857"
       sodipodi:cy="345.21933"
       sodipodi:rx="131.42857"
       sodipodi:ry="141.42857"
       d="m -283.05123,419.88033 a 131.42857,141.42857 0 1 1 1.91325,3.21466"
       sodipodi:start="2.5854595"
       sodipodi:end="8.841652"
       sodipodi:open="true"
       transform="matrix(-0.56129642,0.07283377,-0.06820265,-0.52560636,-321.2488,1217.7257)" />
    <path
       sodipodi:type="arc"
       style="fill:none;stroke:#000000;stroke-width:0.69999999;stroke-linecap:square;stroke-linejoin:miter;stroke-miterlimit:4;stroke-opacity:1;stroke-dasharray:none;stroke-dashoffset:0"
       id="path4011"
       sodipodi:cx="-1090"
       sodipodi:cy="1099.505"
       sodipodi:rx="184.28572"
       sodipodi:ry="184.28572"
       d="m -1246.5144,1196.7905 a 184.28572,184.28572 0 1 1 2.6827,4.1889"
       sodipodi:start="2.5854595"
       sodipodi:end="8.841652"
       sodipodi:open="true"
       transform="translate(742.85714,-340.00001)" />
    <g
       id="g3173">
      <g
         id="flowRoot4013"
         style="font-size:195.75663757px;font-style:normal;font-variant:normal;font-weight:normal;font-stretch:normal;line-height:125%;letter-spacing:0px;word-spacing:0px;fill:#000000;fill-opacity:1;stroke:none;font-family:Futura Std;-inkscape-font-specification:Futura Std"
         transform="matrix(2.1097625,0,0,2.1097625,2196.0448,-2316.4531)">
        <path
           id="path3130"
           d="m -1111.0847,1378.0972 c -8.2217,-5.8727 -18.4011,-9.2005 -28.3847,-9.2005 -27.0144,0 -49.1349,21.1417 -49.1349,48.5476 0,27.7974 21.1417,48.5476 48.9392,48.5476 10.9623,0 20.1629,-3.3278 29.1677,-9.3963 l 0,-20.9459 -0.3915,0 c -7.6345,9.9835 -16.8351,15.8563 -29.9508,15.8563 -19.1841,0 -31.7126,-15.8564 -31.7126,-34.0617 0,-18.4011 13.5073,-34.0617 32.4956,-34.0617 12.3327,0 21.3375,6.2643 28.5805,15.4648 l 0.3915,0 0,-20.7502"
           inkscape:connector-curvature="0" />
      </g>
      <g
         transform="translate(11.428571,-11.428571)"
         id="text4031"
         style="font-size:413px;font-style:normal;font-variant:normal;font-weight:normal;font-stretch:normal;line-height:125%;letter-spacing:0px;word-spacing:0px;fill:#000000;fill-opacity:1;stroke:none;font-family:Futura Std;-inkscape-font-specification:Futura Std">
        <path
           id="path3127"
           d="m 3.0380998,785.26262 c 56.5809432,0 102.0110002,-45.01706 102.0110002,-102.011 0,-56.99395 -45.017057,-102.837 -102.0110002,-102.837 -56.9939428,0 -102.0109998,45.84305 -102.0109998,102.837 0,56.99394 45.430056,102.011 102.0109998,102.011 m 0,-174.286 c 40.8869592,0 68.9710002,32.62703 68.9710002,71.862 0,39.64796 -28.084041,71.862 -68.9710002,71.862 -40.8869588,0 -68.9709998,-32.21404 -68.9709998,-71.862 0,-39.23497 28.084041,-71.862 68.9709998,-71.862"
           inkscape:connector-curvature="0" />
      </g>
      <g
         transform="translate(11.428571,-11.428571)"
         id="text4035"
         style="font-size:413px;font-style:normal;font-variant:normal;font-weight:normal;font-stretch:normal;line-height:125%;letter-spacing:0px;word-spacing:0px;fill:#000000;fill-opacity:1;stroke:none;font-family:Futura Std;-inkscape-font-specification:Futura Std">
        <path
           id="path3124"
           d="m 257.52898,614.52854 c -8.67299,-20.23698 -29.32303,-35.931 -51.625,-35.931 -31.38797,0 -57.82,22.30203 -57.82,54.929 0,61.12394 87.556,46.25604 87.556,89.621 0,17.75898 -13.62902,29.736 -31.388,29.736 -21.88898,0 -31.38801,-12.80302 -39.648,-30.975 l -29.323,12.39 c 10.32499,30.56197 35.93103,49.147 68.558,49.147 35.93096,0 65.667,-26.43204 65.667,-63.189 0,-32.62697 -22.30203,-46.25601 -45.017,-55.755 -22.71498,-9.49899 -45.017,-16.10702 -45.017,-33.866 0,-12.38999 12.39001,-21.476 23.954,-21.476 11.97699,0 21.889,9.49901 26.432,19.824 l 27.671,-14.455"
           inkscape:connector-curvature="0" />
      </g>
      <g
         transform="translate(5.7142858,-11.428571)"
         id="text4039"
         style="font-size:413px;font-style:normal;font-variant:normal;font-weight:normal;font-stretch:normal;line-height:125%;letter-spacing:0px;word-spacing:0px;fill:#000000;fill-opacity:1;stroke:none;font-family:Futura Std;-inkscape-font-specification:Futura Std">
        <path
           id="path3121"
           d="m 353.48012,586.82359 -33.04,0 0,194.11 33.04,0 0,-194.11 m -16.52,-96.642 c -12.80299,0 -23.541,10.73802 -23.541,23.541 0,13.21599 10.73801,23.541 23.541,23.541 12.80298,0 23.541,-10.32501 23.541,-23.541 0,-12.80298 -10.73802,-23.541 -23.541,-23.541"
           inkscape:connector-curvature="0" />
      </g>
      <g
         id="flowRoot4013-4"
         style="font-size:195.75663757px;font-style:normal;font-variant:normal;font-weight:normal;font-stretch:normal;line-height:125%;letter-spacing:0px;word-spacing:0px;fill:#000000;fill-opacity:1;stroke:none;font-family:Futura Std;-inkscape-font-specification:Futura Std"
         transform="matrix(2.1097625,0,0,2.1097625,2919.565,-2318.1086)">
        <path
           id="path3118"
           d="m -1111.0847,1378.0972 c -8.2217,-5.8727 -18.4011,-9.2005 -28.3847,-9.2005 -27.0144,0 -49.1349,21.1417 -49.1349,48.5476 0,27.7974 21.1417,48.5476 48.9392,48.5476 10.9623,0 20.1629,-3.3278 29.1677,-9.3963 l 0,-20.9459 -0.3915,0 c -7.6345,9.9835 -16.8351,15.8563 -29.9508,15.8563 -19.1841,0 -31.7126,-15.8564 -31.7126,-34.0617 0,-18.4011 13.5073,-34.0617 32.4956,-34.0617 12.3327,0 21.3375,6.2643 28.5805,15.4648 l 0.3915,0 0,-20.7502"
           inkscape:connector-curvature="0" />
      </g>
    </g>
    <path
       sodipodi:type="arc"
       style="fill:none;stroke:#000000;stroke-width:0.69999999;stroke-linecap:square;stroke-linejoin:miter;stroke-miterlimit:4;stroke-opacity:1;stroke-dasharray:none;stroke-dashoffset:0"
       id="path3005-1"
       sodipodi:cx="-437.14285"
       sodipodi:cy="315.21933"
       sodipodi:rx="74.285713"
       sodipodi:ry="74.285713"
       d="m -500.23392,354.43521 a 74.285713,74.285713 0 1 1 0.12716,0.20383"
       sodipodi:start="2.5854595"
       sodipodi:end="8.8654107"
       sodipodi:open="true"
       transform="matrix(0.78948207,0,0,0.78948207,75.116846,273.50197)" />
  </g>
</svg>
