<?xml version="1.0" encoding="utf-8"?>
<!-- Generator: Adobe Illustrator 13.0.2, SVG Export Plug-In . SVG Version: 6.00 Build 14948)  -->
<!DOCTYPE svg PUBLIC "-//W3C//DTD SVG 1.0//EN" "http://www.w3.org/TR/2001/REC-SVG-20010904/DTD/svg10.dtd">
<svg version="1.0" id="Layer_1" xmlns="http://www.w3.org/2000/svg" xmlns:xlink="http://www.w3.org/1999/xlink" x="0px" y="0px"
	 width="400px" height="200px" viewBox="0 0 400 200" enable-background="new 0 0 400 200" xml:space="preserve">
<path fill-rule="evenodd" clip-rule="evenodd" d="M333.386,94.021c2.072,2.329,5.544-2.399,9-2c2.403,2.93,3.34,7.327,4,12
	c6.38-8.954,7.924-22.743,24-22c4.617,7.716,6.242,18.425,8,29c4.868,1.272,4.68-5.82,8-3c6.912,9.764-5.559,12.008-9,11
	c-10.771-3.152-7.103-22.488-12-31c-17.325,1.342-4.802,32.531-23,33c-1.554-6.113-3.946-11.387-5-18c-7.294,2.039-9.69,8.976-17,11
	c6.305-29.361,16.247-55.086,15-92c-15.436,3.898-26.022,12.645-35,23c-1.957,25.441,14.124,44.403,15,73
	c-6.273,7.063-19.852,7.746-27,2c-4.498,1.168-7.443,3.89-13,4c-5.061-3.272-7.016-9.651-10-15c-7.229,5.438-8.313,17.02-19,19
	c-2.153-8.514-0.877-20.456-7-25c-11.148,3.852-11.451,18.549-19,26c-7.606-0.394-10.997-5.003-14-10c-6.98,6.588-21.793,5.67-29,0
	c-5.654,4.68-11.327,9.34-13,18c-3.32-1.129-5.757,4.664-8,8c-4.829,7.182-11.478,17.731-7,30c2.178,3.172,4.639-5.138,8-1
	c-0.023,6.977-5.854,8.146-11,10c-11.732-12.871-1.086-32.478,7-45c5.456-8.448,11.505-16.658,16-21c1.542-7.125,5.211-12.122,9-17
	c-11.574-0.657-24.1,7.256-43,5c-7.836-0.936-14.225-4.255-20-8c-2.312-2.812-0.31-7.715,0-11c4.247-1.247,2.674,3.326,5,4
	c6.446-5.893,11.168-18.824,18-21c-2.208,11.126-10.101,16.566-14,26c4.744,8.85,14.821,6.321,25,6
	c-3.327-29.254,6.766-54.016,32-53c4.313,14.36-0.003,30.32-4,44c13.609,4.773,28.92-8.879,39,1c2.247,8.462-5.577,22.09,2,28
	c8.122-7.544,11.114-20.219,19-28c12.462-0.795,12.185,11.148,15,20c6.547-4.786,7.524-15.142,19-15c0.037,8.296,3.035,13.631,7,18
	c4.905-0.761,5.34-5.993,9-8c6.498,2.835,9.371,9.296,20,8c4.454-18.321-14.402-36.162-14-59c0.247-14.036,8.057-23.946,20-31
	c7.668-4.529,14.055-6.879,23-11c1.615-0.282,1.722,0.945,3,1C344.382,44.996,338.434,68.925,333.386,94.021z M154.386,99.021
	c22.575-0.49,27.038-27.263,23-48C161.235,57.594,149.878,78.309,154.386,99.021z M182.386,115.021c13.468,10.655,29.209-4.37,31-18
	C199.475,91.809,181.063,98.431,182.386,115.021z"/>
<path fill-rule="evenodd" clip-rule="evenodd" d="M390.386,44.021c1.49,6.195-4.628,8.859-9,6c0-1.667,0-3.333,0-5
	C384.677,44.979,386.364,43.333,390.386,44.021z"/>
<path fill-rule="evenodd" clip-rule="evenodd" d="M114.386,62.021c-1.392,18.941-8.688,31.979-12,49c1.908,3.113,4.342-1.563,7-1
	c-1.543,4.457-4.579,7.422-11,7c0.562-18.771,8.673-29.994,11-47c-5.822,2.834-8.781,12.571-14,22c-4.133,7.467-10.501,20.948-17,21
	c-10.167,0.081-10.679-16.671-19-21c-7.187,7.813-7.674,22.326-18,27c-1.864-7.47-1.886-16.781-3-25
	c-11.264,8.402-14.021,25.313-29,30c4.44-22.893,6.475-48.191,22-60c-4.99,17.344-16.797,27.869-16,51
	c9.758-9.242,13.187-24.813,27-30c1.485,7.182,0.917,16.416,1,25c6.633-0.089,8.226-25.375,15-26c2.969-0.274,7.153,8.409,9,11
	c3.5,4.911,5.873,7.852,8,12c18.38-7.953,21.656-31.011,34-45C111.052,62.021,112.719,62.021,114.386,62.021z"/>
</svg>
