/* XPM */
static char * sshart_xpm[] = {
"17 6 10 1",
"o c #FFFFFF",
"= c #F30000",
". c #F06000",
"+ c #F000C0",
"0 c #F00306",
"B c #F05000",
"* c #FF000F",
"S c #F000C0",
"E c #F000C0",
"  c #F000C0",
"        o=.      ",
"     o  o++E     ",
"    + . Ooo.     ",
"     + O B..     ",
"      = *S.      ",
"       o         "};
/*"17 6 3 1",*/
/*"  c #FF0000",*/
/*"o c #FFFFFF",*/
/*"= c #F30000",*/
/*"                 ",*/
/*"   =             ",*/
/*"   o             ",*/
/*"                 ",*/
/*"                 ",*/
/*"                 "};*/
