<?xml version="1.0" encoding="UTF-8" standalone="no"?>
<!-- Created with Inkscape (http://www.inkscape.org/) -->

<svg
   xmlns:dc="http://purl.org/dc/elements/1.1/"
   xmlns:cc="http://creativecommons.org/ns#"
   xmlns:rdf="http://www.w3.org/1999/02/22-rdf-syntax-ns#"
   xmlns:svg="http://www.w3.org/2000/svg"
   xmlns="http://www.w3.org/2000/svg"
   xmlns:sodipodi="http://sodipodi.sourceforge.net/DTD/sodipodi-0.dtd"
   xmlns:inkscape="http://www.inkscape.org/namespaces/inkscape"
   width="744.09448"
   height="1052.3622"
   id="svg10228"
   version="1.1"
   inkscape:version="0.48.2 r9819"
   sodipodi:docname="letter-header.svg">
  <sodipodi:namedview
     id="base"
     pagecolor="#ffffff"
     bordercolor="#666666"
     borderopacity="1.0"
     inkscape:pageopacity="0.0"
     inkscape:pageshadow="2"
     inkscape:zoom="0.56323348"
     inkscape:cx="391.71021"
     inkscape:cy="547.10908"
     inkscape:document-units="mm"
     inkscape:current-layer="layer1"
     showgrid="false"
     showguides="false"
     inkscape:guide-bbox="true"
     inkscape:window-width="1280"
     inkscape:window-height="776"
     inkscape:window-x="0"
     inkscape:window-y="24"
     inkscape:window-maximized="1"
     units="mm">
    <sodipodi:guide
       orientation="0,1"
       position="439.21306,1111.6516"
       id="guide28970" />
    <sodipodi:guide
       orientation="1,0"
       position="875.85753,353.12298"
       id="guide34323" />
    <sodipodi:guide
       orientation="0,1"
       position="-5.7574399,1049.7732"
       id="guide34325" />
    <sodipodi:guide
       orientation="0,1"
       position="-151.12538,5.5289774"
       id="guide34329" />
    <sodipodi:guide
       orientation="0,1"
       position="0,704.32681"
       id="guide34331" />
    <sodipodi:guide
       orientation="0,1"
       position="-1.9191466,353.12298"
       id="guide34333" />
    <sodipodi:guide
       orientation="1,0"
       position="0,228.37845"
       id="guide3319" />
    <sodipodi:guide
       orientation="1,0"
       position="122.82538,914.02278"
       id="guide3321" />
    <sodipodi:guide
       orientation="1,0"
       position="245.90097,634.64146"
       id="guide3323" />
    <sodipodi:guide
       orientation="1,0"
       position="365.60911,619.25044"
       id="guide3325" />
    <sodipodi:guide
       orientation="1,0"
       position="494.64166,82.101016"
       id="guide3327" />
    <sodipodi:guide
       orientation="1,0"
       position="624.06322,433.65683"
       id="guide3329" />
    <sodipodi:guide
       orientation="1,0"
       position="122.82538,914.02278"
       id="guide91988" />
    <sodipodi:guide
       orientation="1,0"
       position="93.059614,944.24907"
       id="guide31271" />
  </sodipodi:namedview>
  <defs
     id="defs10230">
    <clipPath
       id="clipPath14445"
       clipPathUnits="userSpaceOnUse">
      <path
         id="path14447"
         d="m 0,0 2522.84,0 0,1445.67 L 0,1445.67 0,0 z"
         inkscape:connector-curvature="0" />
    </clipPath>
    <clipPath
       id="clipPath19574"
       clipPathUnits="userSpaceOnUse">
      <path
         id="path19576"
         d="m 0,0 283.465,141.73 c 0,78.274 -63.461,141.735 -141.735,141.735 C 63.457,283.465 0,220.004 0,141.73 0,63.457 63.457,0 141.73,0 220.004,0 283.465,63.457 283.465,141.73 L 0,0 z"
         inkscape:connector-curvature="0" />
    </clipPath>
    <clipPath
       id="clipPath19568"
       clipPathUnits="userSpaceOnUse">
      <path
         id="path19570"
         d="M 0,0 0,283 283,283 283,0 0,0 z"
         inkscape:connector-curvature="0" />
    </clipPath>
    <clipPath
       id="clipPath19739"
       clipPathUnits="userSpaceOnUse">
      <path
         id="path19741"
         d="m 0,0 283.465,141.73 c 0,78.274 -63.461,141.735 -141.735,141.735 C 63.457,283.465 0,220.004 0,141.73 0,63.457 63.457,0 141.73,0 220.004,0 283.465,63.457 283.465,141.73 L 0,0 z"
         inkscape:connector-curvature="0" />
    </clipPath>
    <clipPath
       id="clipPath19733"
       clipPathUnits="userSpaceOnUse">
      <path
         id="path19735"
         d="M 0,0 0,283 283,283 283,0 0,0 z"
         inkscape:connector-curvature="0" />
    </clipPath>
    <clipPath
       id="clipPath19946"
       clipPathUnits="userSpaceOnUse">
      <path
         id="path19948"
         d="m 0,0 283.465,141.73 c 0,78.274 -63.461,141.735 -141.735,141.735 C 63.457,283.465 0,220.004 0,141.73 0,63.457 63.457,0 141.73,0 220.004,0 283.465,63.457 283.465,141.73 L 0,0 z"
         inkscape:connector-curvature="0" />
    </clipPath>
    <clipPath
       id="clipPath19940"
       clipPathUnits="userSpaceOnUse">
      <path
         id="path19942"
         d="M 0,0 0,283 283,283 283,0 0,0 z"
         inkscape:connector-curvature="0" />
    </clipPath>
    <clipPath
       id="clipPath20144"
       clipPathUnits="userSpaceOnUse">
      <path
         id="path20146"
         d="m 0,0 283.465,141.73 c 0,78.274 -63.461,141.735 -141.735,141.735 C 63.457,283.465 0,220.004 0,141.73 0,63.457 63.457,0 141.73,0 220.004,0 283.465,63.457 283.465,141.73 L 0,0 z"
         inkscape:connector-curvature="0" />
    </clipPath>
    <clipPath
       id="clipPath20138"
       clipPathUnits="userSpaceOnUse">
      <path
         id="path20140"
         d="M 0,0 0,283 283,283 283,0 0,0 z"
         inkscape:connector-curvature="0" />
    </clipPath>
    <clipPath
       id="clipPath21403"
       clipPathUnits="userSpaceOnUse">
      <path
         id="path21405"
         d="m 0,0 283.465,141.73 c 0,78.274 -63.461,141.735 -141.735,141.735 C 63.457,283.465 0,220.004 0,141.73 0,63.457 63.457,0 141.73,0 220.004,0 283.465,63.457 283.465,141.73 L 0,0 z"
         inkscape:connector-curvature="0" />
    </clipPath>
    <clipPath
       id="clipPath21397"
       clipPathUnits="userSpaceOnUse">
      <path
         id="path21399"
         d="M 0,0 0,283 283,283 283,0 0,0 z"
         inkscape:connector-curvature="0" />
    </clipPath>
    <clipPath
       id="clipPath21571"
       clipPathUnits="userSpaceOnUse">
      <path
         id="path21573"
         d="m 0,0 283.465,141.73 c 0,78.274 -63.461,141.735 -141.735,141.735 C 63.457,283.465 0,220.004 0,141.73 0,63.457 63.457,0 141.73,0 220.004,0 283.465,63.457 283.465,141.73 L 0,0 z"
         inkscape:connector-curvature="0" />
    </clipPath>
    <clipPath
       id="clipPath21565"
       clipPathUnits="userSpaceOnUse">
      <path
         id="path21567"
         d="M 0,0 0,283 283,283 283,0 0,0 z"
         inkscape:connector-curvature="0" />
    </clipPath>
    <clipPath
       id="clipPath22272"
       clipPathUnits="userSpaceOnUse">
      <path
         id="path22274"
         d="m 0,0 283.465,141.73 c 0,78.274 -63.461,141.735 -141.735,141.735 C 63.457,283.465 0,220.004 0,141.73 0,63.457 63.457,0 141.73,0 220.004,0 283.465,63.457 283.465,141.73 L 0,0 z"
         inkscape:connector-curvature="0" />
    </clipPath>
    <clipPath
       id="clipPath22266"
       clipPathUnits="userSpaceOnUse">
      <path
         id="path22268"
         d="M 0,0 0,283 283,283 283,0 0,0 z"
         inkscape:connector-curvature="0" />
    </clipPath>
    <clipPath
       id="clipPath22976"
       clipPathUnits="userSpaceOnUse">
      <path
         id="path22978"
         d="m 0,0 283.465,141.73 c 0,78.274 -63.461,141.735 -141.735,141.735 C 63.457,283.465 0,220.004 0,141.73 0,63.457 63.457,0 141.73,0 220.004,0 283.465,63.457 283.465,141.73 L 0,0 z"
         inkscape:connector-curvature="0" />
    </clipPath>
    <clipPath
       id="clipPath22970"
       clipPathUnits="userSpaceOnUse">
      <path
         id="path22972"
         d="M 0,0 0,283 283,283 283,0 0,0 z"
         inkscape:connector-curvature="0" />
    </clipPath>
    <clipPath
       id="clipPath23150"
       clipPathUnits="userSpaceOnUse">
      <path
         id="path23152"
         d="m 0,0 283.465,141.73 c 0,78.274 -63.461,141.735 -141.735,141.735 C 63.457,283.465 0,220.004 0,141.73 0,63.457 63.457,0 141.73,0 220.004,0 283.465,63.457 283.465,141.73 L 0,0 z"
         inkscape:connector-curvature="0" />
    </clipPath>
    <clipPath
       id="clipPath23144"
       clipPathUnits="userSpaceOnUse">
      <path
         id="path23146"
         d="M 0,0 0,283 283,283 283,0 0,0 z"
         inkscape:connector-curvature="0" />
    </clipPath>
    <clipPath
       id="clipPath27018"
       clipPathUnits="userSpaceOnUse">
      <path
         id="path27020"
         d="M 0,0 566.93,283.465 C 566.93,440.016 440.016,566.93 283.465,566.93 126.914,566.93 0,440.016 0,283.465 0,126.914 126.914,0 283.465,0 440.016,0 566.93,126.914 566.93,283.465 L 0,0 z"
         inkscape:connector-curvature="0" />
    </clipPath>
    <clipPath
       id="clipPath27114"
       clipPathUnits="userSpaceOnUse">
      <path
         id="path27116"
         d="M 0,0 566.93,283.465 C 566.93,440.016 440.016,566.93 283.465,566.93 126.914,566.93 0,440.016 0,283.465 0,126.914 126.914,0 283.465,0 440.016,0 566.93,126.914 566.93,283.465 L 0,0 z"
         inkscape:connector-curvature="0" />
    </clipPath>
    <clipPath
       id="clipPath27217"
       clipPathUnits="userSpaceOnUse">
      <path
         id="path27219"
         d="M 0,0 566.93,283.465 C 566.93,440.016 440.016,566.93 283.465,566.93 126.914,566.93 0,440.016 0,283.465 0,126.914 126.914,0 283.465,0 440.016,0 566.93,126.914 566.93,283.465 L 0,0 z"
         inkscape:connector-curvature="0" />
    </clipPath>
    <clipPath
       clipPathUnits="userSpaceOnUse"
       id="clipPath27712">
      <path
         inkscape:connector-curvature="0"
         d="M 0,0 0,425 425,425 425,0 0,0 z"
         id="path27714" />
    </clipPath>
    <clipPath
       clipPathUnits="userSpaceOnUse"
       id="clipPath27718">
      <path
         inkscape:connector-curvature="0"
         d="m 0,0 425.195,212.598 c 0,117.414 -95.183,212.597 -212.597,212.597 C 95.1836,425.195 0,330.012 0,212.598 0,95.1836 95.1836,0 212.598,0 330.012,0 425.195,95.1836 425.195,212.598 L 0,0 z"
         id="path27720" />
    </clipPath>
    <clipPath
       id="clipPath28642"
       clipPathUnits="userSpaceOnUse">
      <path
         id="path28644"
         d="m 0,0 425.195,212.598 c 0,117.414 -95.183,212.597 -212.597,212.597 C 95.1836,425.195 0,330.012 0,212.598 0,95.1836 95.1836,0 212.598,0 330.012,0 425.195,95.1836 425.195,212.598 L 0,0 z"
         inkscape:connector-curvature="0" />
    </clipPath>
    <clipPath
       id="clipPath28636"
       clipPathUnits="userSpaceOnUse">
      <path
         id="path28638"
         d="M 0,0 0,425 425,425 425,0 0,0 z"
         inkscape:connector-curvature="0" />
    </clipPath>
    <clipPath
       id="clipPath29013"
       clipPathUnits="userSpaceOnUse">
      <path
         id="path29015"
         d="m 0,0 425.195,212.598 c 0,117.414 -95.183,212.597 -212.597,212.597 C 95.1836,425.195 0,330.012 0,212.598 0,95.1836 95.1836,0 212.598,0 330.012,0 425.195,95.1836 425.195,212.598 L 0,0 z"
         inkscape:connector-curvature="0" />
    </clipPath>
    <clipPath
       id="clipPath29007"
       clipPathUnits="userSpaceOnUse">
      <path
         id="path29009"
         d="M 0,0 0,425 425,425 425,0 0,0 z"
         inkscape:connector-curvature="0" />
    </clipPath>
    <clipPath
       id="clipPath30383"
       clipPathUnits="userSpaceOnUse">
      <path
         id="path30385"
         d="m 0,0 425.195,212.598 c 0,117.414 -95.183,212.597 -212.597,212.597 C 95.1836,425.195 0,330.012 0,212.598 0,95.1836 95.1836,0 212.598,0 330.012,0 425.195,95.1836 425.195,212.598 L 0,0 z"
         inkscape:connector-curvature="0" />
    </clipPath>
    <clipPath
       id="clipPath30377"
       clipPathUnits="userSpaceOnUse">
      <path
         id="path30379"
         d="M 0,0 0,425 425,425 425,0 0,0 z"
         inkscape:connector-curvature="0" />
    </clipPath>
    <clipPath
       id="clipPath30739"
       clipPathUnits="userSpaceOnUse">
      <path
         id="path30741"
         d="m 0,0 425.195,212.598 c 0,117.414 -95.183,212.597 -212.597,212.597 C 95.1836,425.195 0,330.012 0,212.598 0,95.1836 95.1836,0 212.598,0 330.012,0 425.195,95.1836 425.195,212.598 L 0,0 z"
         inkscape:connector-curvature="0" />
    </clipPath>
    <clipPath
       id="clipPath30733"
       clipPathUnits="userSpaceOnUse">
      <path
         id="path30735"
         d="M 0,0 0,425 425,425 425,0 0,0 z"
         inkscape:connector-curvature="0" />
    </clipPath>
    <clipPath
       id="clipPath30943"
       clipPathUnits="userSpaceOnUse">
      <path
         id="path30945"
         d="m 0,0 425.195,212.598 c 0,117.414 -95.183,212.597 -212.597,212.597 C 95.1836,425.195 0,330.012 0,212.598 0,95.1836 95.1836,0 212.598,0 330.012,0 425.195,95.1836 425.195,212.598 L 0,0 z"
         inkscape:connector-curvature="0" />
    </clipPath>
    <clipPath
       id="clipPath30937"
       clipPathUnits="userSpaceOnUse">
      <path
         id="path30939"
         d="M 0,0 0,425 425,425 425,0 0,0 z"
         inkscape:connector-curvature="0" />
    </clipPath>
    <clipPath
       id="clipPath31159"
       clipPathUnits="userSpaceOnUse">
      <path
         id="path31161"
         d="m 0,0 425.195,212.598 c 0,117.414 -95.183,212.597 -212.597,212.597 C 95.1836,425.195 0,330.012 0,212.598 0,95.1836 95.1836,0 212.598,0 330.012,0 425.195,95.1836 425.195,212.598 L 0,0 z"
         inkscape:connector-curvature="0" />
    </clipPath>
    <clipPath
       id="clipPath31153"
       clipPathUnits="userSpaceOnUse">
      <path
         id="path31155"
         d="M 0,0 0,425 425,425 425,0 0,0 z"
         inkscape:connector-curvature="0" />
    </clipPath>
    <clipPath
       id="clipPath31351"
       clipPathUnits="userSpaceOnUse">
      <path
         id="path31353"
         d="m 0,0 425.195,212.598 c 0,117.414 -95.183,212.597 -212.597,212.597 C 95.1836,425.195 0,330.012 0,212.598 0,95.1836 95.1836,0 212.598,0 330.012,0 425.195,95.1836 425.195,212.598 L 0,0 z"
         inkscape:connector-curvature="0" />
    </clipPath>
    <clipPath
       id="clipPath31345"
       clipPathUnits="userSpaceOnUse">
      <path
         id="path31347"
         d="M 0,0 0,425 425,425 425,0 0,0 z"
         inkscape:connector-curvature="0" />
    </clipPath>
    <clipPath
       id="clipPath31507"
       clipPathUnits="userSpaceOnUse">
      <path
         id="path31509"
         d="M 0,0 566.93,283.465 C 566.93,440.016 440.016,566.93 283.465,566.93 126.914,566.93 0,440.016 0,283.465 0,126.914 126.914,0 283.465,0 440.016,0 566.93,126.914 566.93,283.465 L 0,0 z"
         inkscape:connector-curvature="0" />
    </clipPath>
    <clipPath
       id="clipPath31501"
       clipPathUnits="userSpaceOnUse">
      <path
         id="path31503"
         d="M 0,0 0,425 425,425 425,0 0,0 z"
         inkscape:connector-curvature="0" />
    </clipPath>
    <clipPath
       clipPathUnits="userSpaceOnUse"
       id="clipPath31705">
      <path
         inkscape:connector-curvature="0"
         d="M 0,0 566.93,283.465 C 566.93,440.016 440.016,566.93 283.465,566.93 126.914,566.93 0,440.016 0,283.465 0,126.914 126.914,0 283.465,0 440.016,0 566.93,126.914 566.93,283.465 L 0,0 z"
         id="path31707" />
    </clipPath>
    <clipPath
       id="clipPath31994"
       clipPathUnits="userSpaceOnUse">
      <path
         id="path31996"
         d="M 0,0 566.93,283.465 C 566.93,440.016 440.016,566.93 283.465,566.93 126.914,566.93 0,440.016 0,283.465 0,126.914 126.914,0 283.465,0 440.016,0 566.93,126.914 566.93,283.465 L 0,0 z"
         inkscape:connector-curvature="0" />
    </clipPath>
    <clipPath
       id="clipPath32242"
       clipPathUnits="userSpaceOnUse">
      <path
         id="path32244"
         d="M 0,0 566.93,283.465 C 566.93,440.016 440.016,566.93 283.465,566.93 126.914,566.93 0,440.016 0,283.465 0,126.914 126.914,0 283.465,0 440.016,0 566.93,126.914 566.93,283.465 L 0,0 z"
         inkscape:connector-curvature="0" />
    </clipPath>
    <clipPath
       id="clipPath32431"
       clipPathUnits="userSpaceOnUse">
      <path
         id="path32433"
         d="M 0,0 566.93,283.465 C 566.93,440.016 440.016,566.93 283.465,566.93 126.914,566.93 0,440.016 0,283.465 0,126.914 126.914,0 283.465,0 440.016,0 566.93,126.914 566.93,283.465 L 0,0 z"
         inkscape:connector-curvature="0" />
    </clipPath>
    <clipPath
       id="clipPath32653"
       clipPathUnits="userSpaceOnUse">
      <path
         id="path32655"
         d="M 0,0 566.93,283.465 C 566.93,440.016 440.016,566.93 283.465,566.93 126.914,566.93 0,440.016 0,283.465 0,126.914 126.914,0 283.465,0 440.016,0 566.93,126.914 566.93,283.465 L 0,0 z"
         inkscape:connector-curvature="0" />
    </clipPath>
    <clipPath
       id="clipPath32866"
       clipPathUnits="userSpaceOnUse">
      <path
         id="path32868"
         d="m 0,0 425.195,212.598 c 0,117.414 -95.183,212.597 -212.597,212.597 C 95.1836,425.195 0,330.012 0,212.598 0,95.1836 95.1836,0 212.598,0 330.012,0 425.195,95.1836 425.195,212.598 L 0,0 z"
         inkscape:connector-curvature="0" />
    </clipPath>
    <clipPath
       id="clipPath32860"
       clipPathUnits="userSpaceOnUse">
      <path
         id="path32862"
         d="M 0,0 0,425 425,425 425,0 0,0 z"
         inkscape:connector-curvature="0" />
    </clipPath>
    <clipPath
       id="clipPath33034"
       clipPathUnits="userSpaceOnUse">
      <path
         id="path33036"
         d="m 0,0 425.195,212.598 c 0,117.414 -95.183,212.597 -212.597,212.597 C 95.1836,425.195 0,330.012 0,212.598 0,95.1836 95.1836,0 212.598,0 330.012,0 425.195,95.1836 425.195,212.598 L 0,0 z"
         inkscape:connector-curvature="0" />
    </clipPath>
    <clipPath
       id="clipPath33028"
       clipPathUnits="userSpaceOnUse">
      <path
         id="path33030"
         d="M 0,0 0,425 425,425 425,0 0,0 z"
         inkscape:connector-curvature="0" />
    </clipPath>
    <clipPath
       id="clipPath4830"
       clipPathUnits="userSpaceOnUse">
      <path
         id="path4832"
         d="m 197.625,1649.31 270.578,0 c 0,149.44 -121.144,270.58 -270.578,270.58 -149.4336,0 -270.582,-121.14 -270.582,-270.58 0,-149.43 121.1484,-270.58 270.582,-270.58 149.434,0 270.578,121.15 270.578,270.58 m 396.629,1610.73 270.578,0 c 0,149.43 -121.14,270.58 -270.578,270.58 -149.434,0 -270.578,-121.15 -270.578,-270.58 0,-149.43 121.144,-270.58 270.578,-270.58 149.438,0 270.578,121.15 270.578,270.58 m -983.676,-1928.05 270.582,0 c 0,149.44 -121.148,270.58 -270.582,270.58 -149.43322,0 -270.578,-121.14 -270.578,-270.58 0,-149.43 121.14478,-270.58 270.578,-270.58 149.434,0 270.582,121.15 270.582,270.58 m 704.094,14.88 270.58,0 c 0,149.43 -121.14,270.58 -270.58,270.58 -149.43,0 -270.578,-121.15 -270.578,-270.58 0,-149.43 121.148,-270.58 270.578,-270.58 149.44,0 270.58,121.15 270.58,270.58 l -270.58,0 z" />
    </clipPath>
    <clipPath
       id="clipPath4824"
       clipPathUnits="userSpaceOnUse">
      <path
         id="path4826"
         d="m 0,0 0,8419 5953,0 L 5953,0 0,0 z" />
    </clipPath>
    <clipPath
       id="clipPath4510"
       clipPathUnits="userSpaceOnUse">
      <path
         id="path4512"
         d="m 814.453,7230.71 270.577,0 c 0,149.43 -121.143,270.58 -270.577,270.58 -149.433,0 -270.578,-121.15 -270.578,-270.58 0,-149.43 121.145,-270.58 270.578,-270.58 149.434,0 270.577,121.15 270.577,270.58 m -878.499,-5561.59 270.582,0 c 0,149.43 -121.148,270.58 -270.582,270.58 -149.4333,0 -270.5779,-121.15 -270.5779,-270.58 0,-149.43 121.1446,-270.58 270.5779,-270.58 149.434,0 270.582,121.15 270.582,270.58 m -352.758,-3.54 270.583,0 c 0,149.43 -121.149,270.58 -270.583,270.58 -149.4331,0 -270.578,-121.15 -270.578,-270.58 0,-149.44 121.1449,-270.58 270.578,-270.58 149.434,0 270.583,121.14 270.583,270.58 l -270.583,0 z" />
    </clipPath>
    <clipPath
       id="clipPath4504"
       clipPathUnits="userSpaceOnUse">
      <path
         id="path4506"
         d="m 0,0 0,8419 5953,0 L 5953,0 0,0 z" />
    </clipPath>
    <clipPath
       id="clipPath83166"
       clipPathUnits="userSpaceOnUse">
      <path
         id="path83168"
         d="m 1424.92,4677.51 212.6,0 c 0,117.41 -95.18,212.6 -212.6,212.6 -117.41,0 -212.6,-95.19 -212.6,-212.6 0,-117.42 95.19,-212.6 212.6,-212.6 117.42,0 212.6,95.18 212.6,212.6 l -212.6,0 z" />
    </clipPath>
    <clipPath
       id="clipPath82374"
       clipPathUnits="userSpaceOnUse">
      <path
         id="path82376"
         d="m 1463.61,4575.02 c 0,117.41 -95.18,212.59 -212.59,212.59 -117.42,0 -212.6,-95.18 -212.6,-212.59 0,-117.42 95.18,-212.61 212.6,-212.61 117.41,0 212.59,95.19 212.59,212.61 z" />
    </clipPath>
    <clipPath
       id="clipPath82142"
       clipPathUnits="userSpaceOnUse">
      <path
         id="path82144"
         d="m 975.402,5976.98 212.598,0 c 0,117.42 -95.18,212.6 -212.598,212.6 -117.414,0 -212.597,-95.18 -212.597,-212.6 0,-117.41 95.183,-212.59 212.597,-212.59 117.418,0 212.598,95.18 212.598,212.59 l -212.598,0 z" />
    </clipPath>
    <clipPath
       id="clipPath81408"
       clipPathUnits="userSpaceOnUse">
      <path
         id="path81410"
         d="m 1099.14,5796.57 c 0,117.42 -95.19,212.6 -212.605,212.6 -117.414,0 -212.597,-95.18 -212.597,-212.6 0,-117.41 95.183,-212.59 212.597,-212.59 117.415,0 212.605,95.18 212.605,212.59 z" />
    </clipPath>
    <clipPath
       id="clipPath81102"
       clipPathUnits="userSpaceOnUse">
      <path
         id="path81104"
         d="m 898.379,5443.32 212.601,0 c 0,117.42 -95.19,212.6 -212.601,212.6 -117.414,0 -212.598,-95.18 -212.598,-212.6 0,-117.41 95.184,-212.59 212.598,-212.59 117.411,0 212.601,95.18 212.601,212.59 l -212.601,0 z" />
    </clipPath>
    <clipPath
       id="clipPath80866"
       clipPathUnits="userSpaceOnUse">
      <path
         id="path80868"
         d="m 986.457,5302.35 c 0,117.41 -95.184,212.6 -212.598,212.6 -117.414,0 -212.597,-95.19 -212.597,-212.6 0,-117.42 95.183,-212.6 212.597,-212.6 117.414,0 212.598,95.18 212.598,212.6 z" />
    </clipPath>
    <clipPath
       id="clipPath86460"
       clipPathUnits="userSpaceOnUse">
      <path
         id="path86462"
         d="m 1076.22,4947.79 212.6,0 c 0,117.41 -95.19,212.59 -212.6,212.59 -117.415,0 -212.603,-95.18 -212.603,-212.59 0,-117.42 95.188,-212.6 212.603,-212.6 117.41,0 212.6,95.18 212.6,212.6 l -212.6,0 z" />
    </clipPath>
    <clipPath
       id="clipPath85804"
       clipPathUnits="userSpaceOnUse">
      <path
         id="path85806"
         d="m 1122.18,4733.95 c 0,117.42 -95.18,212.6 -212.598,212.6 -117.414,0 -212.598,-95.18 -212.598,-212.6 0,-117.41 95.184,-212.59 212.598,-212.59 117.418,0 212.598,95.18 212.598,212.59 z" />
    </clipPath>
    <clipPath
       id="clipPath85470"
       clipPathUnits="userSpaceOnUse">
      <path
         id="path85472"
         d="m 974.297,2178.94 212.593,0 c 0,117.42 -95.18,212.6 -212.593,212.6 -117.414,0 -212.598,-95.18 -212.598,-212.6 0,-117.41 95.184,-212.6 212.598,-212.6 117.413,0 212.593,95.19 212.593,212.6 l -212.593,0 z" />
    </clipPath>
    <clipPath
       id="clipPath84844"
       clipPathUnits="userSpaceOnUse">
      <path
         id="path84846"
         d="m 869.613,1767.09 c 0,117.42 -95.183,212.61 -212.597,212.61 -117.414,0 -212.598,-95.19 -212.598,-212.61 0,-117.41 95.184,-212.59 212.598,-212.59 117.414,0 212.597,95.18 212.597,212.59 z" />
    </clipPath>
    <clipPath
       id="clipPath90328"
       clipPathUnits="userSpaceOnUse">
      <path
         id="path90330"
         d="m 1119.52,1887.09 212.6,0 c 0,117.42 -95.18,212.61 -212.6,212.61 -117.41,0 -212.594,-95.19 -212.594,-212.61 0,-117.41 95.184,-212.59 212.594,-212.59 117.42,0 212.6,95.18 212.6,212.59 l -212.6,0 z" />
    </clipPath>
    <clipPath
       id="clipPath90146"
       clipPathUnits="userSpaceOnUse">
      <path
         id="path90148"
         d="m 1166.74,1732.28 c 0,117.42 -95.18,212.6 -212.595,212.6 -117.415,0 -212.602,-95.18 -212.602,-212.6 0,-117.41 95.187,-212.6 212.602,-212.6 117.415,0 212.595,95.19 212.595,212.6 z" />
    </clipPath>
    <clipPath
       id="clipPath89878"
       clipPathUnits="userSpaceOnUse">
      <path
         id="path89880"
         d="m 603.207,5469.49 212.598,0 c 0,117.41 -95.184,212.6 -212.598,212.6 -117.414,0 -212.598,-95.19 -212.598,-212.6 0,-117.42 95.184,-212.6 212.598,-212.6 117.414,0 212.598,95.18 212.598,212.6 l -212.598,0 z" />
    </clipPath>
    <clipPath
       id="clipPath89134"
       clipPathUnits="userSpaceOnUse">
      <path
         id="path89136"
         d="m 752.258,5306.89 c 0,117.41 -95.184,212.6 -212.598,212.6 -117.414,0 -212.598,-95.19 -212.598,-212.6 0,-117.41 95.184,-212.6 212.598,-212.6 117.414,0 212.598,95.19 212.598,212.6 z" />
    </clipPath>
    <clipPath
       id="clipPath88622"
       clipPathUnits="userSpaceOnUse">
      <path
         id="path88624"
         d="m 1195.59,8007.45 212.6,0 c 0,117.41 -95.19,212.59 -212.6,212.59 -117.41,0 -212.598,-95.18 -212.598,-212.59 0,-117.42 95.188,-212.61 212.598,-212.61 117.41,0 212.6,95.19 212.6,212.61 l -212.6,0 z" />
    </clipPath>
    <clipPath
       id="clipPath88312"
       clipPathUnits="userSpaceOnUse">
      <path
         id="path88314"
         d="m 1329.34,7965.71 c 0,117.41 -95.19,212.6 -212.6,212.6 -117.416,0 -212.599,-95.19 -212.599,-212.6 0,-117.41 95.183,-212.6 212.599,-212.6 117.41,0 212.6,95.19 212.6,212.6 z" />
    </clipPath>
    <clipPath
       id="clipPath50966"
       clipPathUnits="userSpaceOnUse">
      <path
         id="path50968"
         d="m 652.914,1914.82 212.598,0 c 0,117.42 -95.184,212.61 -212.598,212.61 -117.414,0 -212.602,-95.19 -212.602,-212.61 0,-117.41 95.188,-212.59 212.602,-212.59 117.414,0 212.598,95.18 212.598,212.59 l -212.598,0 z" />
    </clipPath>
    <clipPath
       id="clipPath50412"
       clipPathUnits="userSpaceOnUse">
      <path
         id="path50414"
         d="m 781.258,1727.74 c 0,117.41 -95.184,212.6 -212.598,212.6 -117.414,0 -212.601,-95.19 -212.601,-212.6 0,-117.42 95.187,-212.6 212.601,-212.6 117.414,0 212.598,95.18 212.598,212.6 z" />
    </clipPath>
  </defs>
  <metadata
     id="metadata10233">
    <rdf:RDF>
      <cc:Work
         rdf:about="">
        <dc:format>image/svg+xml</dc:format>
        <dc:type
           rdf:resource="http://purl.org/dc/dcmitype/StillImage" />
        <dc:title />
      </cc:Work>
    </rdf:RDF>
  </metadata>
  <g
     inkscape:label="Layer 1"
     inkscape:groupmode="layer"
     id="layer1"
     transform="translate(0,-2.5390623e-6)">
    <flowRoot
       transform="matrix(0.79619167,0,0,0.79619167,11.093457,-204.40486)"
       style="font-size:40px;font-style:normal;font-variant:normal;font-weight:normal;font-stretch:normal;line-height:300%;letter-spacing:5px;word-spacing:0px;fill:#000000;fill-opacity:1;stroke:none;font-family:cosic;-inkscape-font-specification:cosic"
       id="flowRoot2985-8"
       xml:space="preserve"><flowRegion
         id="flowRegion2987-0"><rect
           style="font-style:normal;font-weight:normal;line-height:300%;letter-spacing:5px;font-family:cosic;-inkscape-font-specification:cosic"
           y="335.21933"
           x="80"
           height="223.14314"
           width="627.3645"
           id="rect2989-0" /></flowRegion><flowPara
         id="flowPara8699"
         style="font-size:13.8157692px;font-style:normal;font-weight:normal;text-align:start;line-height:400%;letter-spacing:5px;text-anchor:start;-inkscape-font-specification:cosic" /></flowRoot>    <flowRoot
       transform="translate(-6,0)"
       xml:space="preserve"
       id="flowRoot10313"
       style="font-size:40px;font-style:normal;font-variant:normal;font-weight:bold;font-stretch:normal;line-height:125%;letter-spacing:0px;word-spacing:0px;fill:#000000;fill-opacity:1;stroke:none;font-family:Migu;-inkscape-font-specification:Migu"><flowRegion
         id="flowRegion10315"><rect
           id="rect10317"
           width="254.43886"
           height="99.664993"
           x="55.108879"
           y="66.26503" /></flowRegion><flowPara
         id="flowPara10319" /></flowRoot>    <flowRoot
       xml:space="preserve"
       id="flowRoot10321"
       style="font-size:40px;font-style:normal;font-variant:normal;font-weight:bold;font-stretch:normal;line-height:125%;letter-spacing:0px;word-spacing:0px;fill:#000000;fill-opacity:1;stroke:none;font-family:Migu;-inkscape-font-specification:Migu"
       transform="translate(31.292557,99.955254)"><flowRegion
         id="flowRegion10323"><rect
           id="rect10325"
           width="404.77341"
           height="575.43201"
           x="49.246231"
           y="211.65866" /></flowRegion><flowPara
         id="flowPara14269"
         style="font-size:8.5px;font-style:normal;font-variant:normal;font-weight:normal;font-stretch:normal;line-height:200%;font-family:cosic-unjustified;-inkscape-font-specification:cosic-unjustified" /><flowPara
         style="font-size:10px;font-style:normal;font-variant:normal;font-weight:normal;font-stretch:normal;line-height:200%;font-family:cosic-unjustified;-inkscape-font-specification:cosic-unjustified"
         id="flowPara14372" /><flowPara
         style="font-size:10px;font-style:normal;font-variant:normal;font-weight:normal;font-stretch:normal;line-height:200%;letter-spacing:0.09px;font-family:cosic-unjustified;-inkscape-font-specification:cosic-unjustified"
         id="flowPara31726" /><flowPara
         style="font-size:10px;font-style:normal;font-variant:normal;font-weight:normal;font-stretch:normal;line-height:200%;letter-spacing:0.09px;font-family:cosic-unjustified;-inkscape-font-specification:cosic-unjustified"
         id="flowPara31767">Mr. John Fox </flowPara><flowPara
         style="font-size:10px;font-style:normal;font-variant:normal;font-weight:normal;font-stretch:normal;line-height:200%;letter-spacing:0.09px;font-family:cosic-unjustified;-inkscape-font-specification:cosic-unjustified"
         id="flowPara31769">Chief Executive Office</flowPara><flowPara
         style="font-size:10px;font-style:normal;font-variant:normal;font-weight:normal;font-stretch:normal;line-height:200%;letter-spacing:0.09px;font-family:cosic-unjustified;-inkscape-font-specification:cosic-unjustified"
         id="flowPara31771">Farmville Coorporation</flowPara><flowPara
         style="font-size:10px;font-style:normal;font-variant:normal;font-weight:normal;font-stretch:normal;line-height:200%;letter-spacing:0.09px;font-family:cosic-unjustified;-inkscape-font-specification:cosic-unjustified"
         id="flowPara31773">Emery Street 143</flowPara><flowPara
         style="font-size:10px;font-style:normal;font-variant:normal;font-weight:normal;font-stretch:normal;line-height:200%;letter-spacing:0.09px;font-family:cosic-unjustified;-inkscape-font-specification:cosic-unjustified"
         id="flowPara31775">B-1001 Bruxelles (Belgium)</flowPara><flowPara
         style="font-size:10px;font-style:normal;font-variant:normal;font-weight:normal;font-stretch:normal;line-height:200%;letter-spacing:0.09px;font-family:cosic-unjustified;-inkscape-font-specification:cosic-unjustified"
         id="flowPara31779" /><flowPara
         style="font-size:10px;font-style:normal;font-variant:normal;font-weight:normal;font-stretch:normal;line-height:200%;letter-spacing:0.09px;font-family:cosic-unjustified;-inkscape-font-specification:cosic-unjustified"
         id="flowPara31781" /><flowPara
         style="font-size:10px;font-style:normal;font-variant:normal;font-weight:normal;font-stretch:normal;line-height:200%;letter-spacing:0.09px;font-family:cosic-unjustified;-inkscape-font-specification:cosic-unjustified"
         id="flowPara31783">Tortona, Noon, June 15th.   </flowPara><flowPara
         style="font-size:10px;font-style:normal;font-variant:normal;font-weight:normal;font-stretch:normal;line-height:200%;letter-spacing:0.09px;font-family:cosic-unjustified;-inkscape-font-specification:cosic-unjustified"
         id="flowPara31730" /><flowPara
         style="font-size:10px;font-style:normal;font-variant:normal;font-weight:normal;font-stretch:normal;line-height:200%;letter-spacing:0.09px;font-family:cosic-unjustified;-inkscape-font-specification:cosic-unjustified"
         id="flowPara3409">To Josephine.</flowPara><flowPara
         style="font-size:10px;font-style:normal;font-variant:normal;font-weight:normal;font-stretch:normal;line-height:200%;letter-spacing:0.09px;font-family:cosic-unjustified;-inkscape-font-specification:cosic-unjustified"
         id="flowPara14319" /><flowPara
         style="font-size:10px;font-style:normal;font-variant:normal;font-weight:normal;font-stretch:normal;line-height:200%;letter-spacing:0.09px;font-family:cosic-unjustified;-inkscape-font-specification:cosic-unjustified"
         id="flowPara14325">My life is a perpetual nightmare. A presentiment of ill oppresses me. I see you no longer. I have lost more than life, more than happiness, more than my rest. I am almost without hope. I hasten to send acourier to you. He will stay only four hours in Paris, and then bring me your reply. Write me ten pages. That alone can console me a little. You are ill, you love me, I have made you unhappy, you are in delicate health, and I do not see you! - that thought overwhelms me. I have done you so much wrong that I know not how to atone for it; I accuse you of staying in Paris, and you were ill there. Forgive me, my dear; the love with which you have inspired me has bereft me ofreason. I shall never find it again.</flowPara><flowPara
         style="font-size:10px;font-style:normal;font-variant:normal;font-weight:normal;font-stretch:normal;line-height:200%;font-family:cosic-unjustified;-inkscape-font-specification:cosic-unjustified"
         id="flowPara14329" /><flowPara
         style="font-size:10px;font-style:normal;font-variant:normal;font-weight:normal;font-stretch:normal;line-height:200%;font-family:cosic-unjustified;-inkscape-font-specification:cosic-unjustified"
         id="flowPara31789">Best regards,</flowPara><flowPara
         style="font-size:10px;font-style:normal;font-variant:normal;font-weight:normal;font-stretch:normal;line-height:200%;letter-spacing:0px;font-family:cosic-unjustified;-inkscape-font-specification:cosic-unjustified"
         id="flowPara3341">Anton Bosselaers</flowPara></flowRoot>    <flowRoot
       xml:space="preserve"
       id="flowRoot14388"
       style="font-size:40px;font-style:normal;font-variant:normal;font-weight:bold;font-stretch:normal;line-height:125%;letter-spacing:0px;word-spacing:0px;fill:#000000;fill-opacity:1;stroke:none;font-family:Migu;-inkscape-font-specification:Migu"
       transform="translate(15.217674,103.91678)"><flowRegion
         id="flowRegion14390"><rect
           id="rect14392"
           width="272.55664"
           height="154.87938"
           x="78.559464"
           y="235.10925" /></flowRegion><flowPara
         id="flowPara14402"
         style="font-size:10px;line-height:200%;font-family:cosic-unjustified;-inkscape-font-specification:cosic-unjustified" /></flowRoot>    <flowRoot
       xml:space="preserve"
       id="flowRoot3345"
       style="font-size:40px;font-style:normal;font-variant:normal;font-weight:bold;font-stretch:normal;line-height:125%;letter-spacing:0px;word-spacing:0px;fill:#000000;fill-opacity:1;stroke:none;font-family:Migu;-inkscape-font-specification:Migu"
       transform="translate(1.363305,-862.42416)"><flowRegion
         id="flowRegion3347"><rect
           id="rect3349"
           width="702.31433"
           height="507.69922"
           x="77.157082"
           y="964.41968" /></flowRegion><flowPara
         style="font-size:9.5px;font-style:normal;font-variant:normal;font-weight:normal;font-stretch:normal;text-align:start;line-height:400%;letter-spacing:5px;text-anchor:start;font-family:cosic;-inkscape-font-specification:cosic"
         id="flowPara3355">DEPARTMENT  OF  ELECTRIC ENGINEERING</flowPara><flowPara
         id="flowPara8722"
         style="font-size:9.5px;font-style:normal;font-variant:normal;font-weight:normal;font-stretch:normal;text-align:start;line-height:400%;letter-spacing:5px;text-anchor:start;font-family:cosic;-inkscape-font-specification:cosic">FACULTY  OF  ENGINEERING  KU LEUVEN</flowPara><flowPara
         id="flowPara8728"
         style="font-size:9.5px;font-style:normal;font-variant:normal;font-weight:bold;font-stretch:normal;text-align:start;line-height:400%;letter-spacing:5px;text-anchor:start;font-family:cosic;-inkscape-font-specification:cosic Bold" /><flowPara
         id="flowPara8732"
         style="font-size:9.5px;font-style:normal;font-variant:normal;font-weight:bold;font-stretch:normal;text-align:start;line-height:400%;letter-spacing:5px;text-anchor:start;font-family:cosic;-inkscape-font-specification:cosic Bold">COSIC KU LEUVEN</flowPara><flowPara
         id="flowPara8716"
         style="font-size:9.5px;font-style:normal;font-variant:normal;font-weight:normal;font-stretch:normal;text-align:start;line-height:400%;letter-spacing:5px;text-anchor:start;font-family:cosic;-inkscape-font-specification:cosic">COMPUTER SECURITY  &amp;  INDUSTRIAL  CRYPTOGRAPHY</flowPara><flowPara
         id="flowPara8720"
         style="font-size:9.5px;font-style:normal;font-variant:normal;font-weight:normal;font-stretch:normal;text-align:start;line-height:400%;letter-spacing:5px;text-anchor:start;font-family:cosic;-inkscape-font-specification:cosic" /></flowRoot>    <flowRoot
       transform="translate(33.894427,13.157539)"
       style="font-size:40px;font-style:normal;font-variant:normal;font-weight:bold;font-stretch:normal;line-height:125%;letter-spacing:0px;word-spacing:0px;fill:#000000;fill-opacity:1;stroke:none;font-family:Migu;-inkscape-font-specification:Migu"
       id="flowRoot8734"
       xml:space="preserve"><flowRegion
         id="flowRegion8736"><rect
           y="979.24908"
           x="49.960609"
           height="123.0737"
           width="689.70013"
           id="rect8738" /></flowRegion><flowPara
         style="font-size:9.5px;font-style:normal;font-variant:normal;font-weight:normal;font-stretch:normal;letter-spacing:5px;font-family:cosic;-inkscape-font-specification:cosic"
         id="flowPara8740">KASTEELPARK  ARTENBERG  10  B-3001  HEVERLEE  (BELGIUM)</flowPara></flowRoot>  </g>
</svg>
