<?xml version="1.0" encoding="UTF-8" standalone="no"?>
<!-- Created with Inkscape (http://www.inkscape.org/) -->

<svg
   xmlns:dc="http://purl.org/dc/elements/1.1/"
   xmlns:cc="http://creativecommons.org/ns#"
   xmlns:rdf="http://www.w3.org/1999/02/22-rdf-syntax-ns#"
   xmlns:svg="http://www.w3.org/2000/svg"
   xmlns="http://www.w3.org/2000/svg"
   xmlns:sodipodi="http://sodipodi.sourceforge.net/DTD/sodipodi-0.dtd"
   xmlns:inkscape="http://www.inkscape.org/namespaces/inkscape"
   width="250"
   height="250"
   id="svg23086"
   version="1.1"
   inkscape:version="0.48.1 r9760"
   sodipodi:docname="sunrays.svg">
  <defs
     id="defs23088">
    <inkscape:path-effect
       effect="skeletal"
       id="path-effect24509"
       is_visible="true"
       pattern="#path24381-0"
       copytype="repeated_stretched"
       prop_scale="1"
       scale_y_rel="false"
       spacing="-3"
       normal_offset="0"
       tang_offset="0"
       prop_units="false"
       vertical_pattern="true"
       fuse_tolerance="0" />
    <inkscape:path-effect
       effect="skeletal"
       id="path-effect24488"
       is_visible="true"
       pattern="M 0,0 1,0"
       copytype="single_stretched"
       prop_scale="1"
       scale_y_rel="false"
       spacing="0"
       normal_offset="0"
       tang_offset="0"
       prop_units="false"
       vertical_pattern="false"
       fuse_tolerance="0" />
    <inkscape:path-effect
       effect="skeletal"
       id="path-effect24420"
       is_visible="true"
       pattern="#path24375"
       copytype="single_stretched"
       prop_scale="1"
       scale_y_rel="false"
       spacing="0"
       normal_offset="0"
       tang_offset="0"
       prop_units="false"
       vertical_pattern="false"
       fuse_tolerance="0" />
  </defs>
  <sodipodi:namedview
     id="base"
     pagecolor="#ffffff"
     bordercolor="#666666"
     borderopacity="1.0"
     inkscape:pageopacity="0.0"
     inkscape:pageshadow="2"
     inkscape:zoom="1.33"
     inkscape:cx="110.95829"
     inkscape:cy="168.08285"
     inkscape:document-units="pt"
     inkscape:current-layer="layer1"
     showgrid="true"
     units="pt"
     inkscape:window-width="1020"
     inkscape:window-height="742"
     inkscape:window-x="0"
     inkscape:window-y="22"
     inkscape:window-maximized="0">
    <inkscape:grid
       type="xygrid"
       id="grid23137"
       empspacing="5"
       visible="true"
       enabled="true"
       snapvisiblegridlinesonly="false"
       spacingx="20pt"
       spacingy="20pt"
       units="pt" />
  </sodipodi:namedview>
  <metadata
     id="metadata23091">
    <rdf:RDF>
      <cc:Work
         rdf:about="">
        <dc:format>image/svg+xml</dc:format>
        <dc:type
           rdf:resource="http://purl.org/dc/dcmitype/StillImage" />
        <dc:title></dc:title>
      </cc:Work>
    </rdf:RDF>
  </metadata>
  <g
     inkscape:label="Calque 1"
     inkscape:groupmode="layer"
     id="layer1"
     transform="translate(0,-802.36221)">
    <path
       sodipodi:type="arc"
       style="color:#000000;fill:#000000;stroke:none;stroke-width:10.20405293;marker:none;visibility:visible;display:inline;overflow:visible;enable-background:accumulate"
       id="path23139"
       sodipodi:cx="125"
       sodipodi:cy="125"
       sodipodi:rx="125"
       sodipodi:ry="125"
       d="m 71.886133,157.94187 c -6.210864,4.02252 -12.553399,7.96312 -19.300423,11.07995 -4.430106,2.04375 -9.02202,3.62661 -13.69569,4.7608 0,0 -10e-7,0 -10e-7,0 -3.934833,0.95892 -7.873047,1.65444 -11.640633,2.71306 -4.655704,1.29444 -9.180602,3.2103 -13.440089,5.61653 -4.4359804,2.06282 -8.6670893,4.57337 -12.2414442,7.91943 -2.9028802,2.69921 -5.4167091,6.03009 -7.9762122,9.4164 -7e-7,0 -1.4e-6,1e-5 -2e-6,1e-5 -3.0349287,4.0265 -6.2215626,7.95207 -9.8013776,11.39455 -5.457561,5.23801 -11.615316,9.45338 -18.132059,12.98272 6.0577,-4.26944 11.749535,-9.09908 16.673009,-14.7386 3.22001,-3.68276 6.047019,-7.78328 8.7633809,-11.96229 6e-7,-1e-5 1.2e-6,-1e-5 1.8e-6,-1e-5 2.3087283,-3.55861 4.6800825,-7.16482 7.6621961,-10.30876 3.7027781,-3.87901 8.1528358,-6.84267 12.8388202,-9.23139 4.848593,-2.03853 9.957458,-3.55053 15.112288,-4.46658 4.165556,-0.7291 8.192352,-1.08762 12.091259,-1.6947 10e-7,0 2e-6,0 3e-6,0 4.58187,-0.71643 9.095144,-1.88881 13.494273,-3.57098 6.731975,-2.57107 13.229121,-6.1339 19.5927,-9.91014 z m -2.971627,-5.36178 c -6.57219,3.40065 -13.268693,6.7044 -20.288243,9.14823 -4.608782,1.60187 -9.334007,2.7292 -14.096572,3.40345 -10e-7,0 -10e-7,0 -2e-6,0 -4.010063,0.57165 -7.997516,0.88187 -11.850005,1.57032 -4.759292,0.83706 -9.448243,2.30553 -13.9206205,4.28766 -4.6147633,1.62325 -9.06892785,3.71203 -12.9507852,6.69577 -3.1508437,2.40506 -5.9760303,5.47621 -8.8526793,8.59721 0,0 -10e-7,0 -2e-6,0 -3.412073,3.71186 -6.966157,7.30736 -10.864578,10.38399 -5.942293,4.68032 -12.481694,8.27556 -19.310358,11.1556 6.444875,-3.6591 12.580968,-7.90974 18.030599,-13.0416 3.563581,-3.35079 6.776311,-7.1559 9.885671,-11.05114 0,0 1e-6,0 2e-6,0 2.643405,-3.31739 5.3531403,-6.67698 8.6257366,-9.51728 4.0610633,-3.50209 8.7769812,-6.02037 13.6720219,-7.94337 5.0229195,-1.55872 10.2537395,-2.56846 15.4728445,-2.98105 4.216417,-0.32231 8.259136,-0.2893 12.199157,-0.51499 10e-7,0 2e-6,0 3e-6,0 4.630478,-0.26824 9.23749,-0.99543 13.780414,-2.24058 6.951722,-1.90228 13.766046,-4.81372 20.467396,-7.95222 z m -2.45188,-5.64263 c -6.870212,2.74745 -13.855047,5.38675 -21.077978,7.13965 -4.742057,1.14823 -9.553905,1.81345 -14.358612,2.02421 0,0 -1e-6,0 -1e-6,0 -4.04593,0.18138 -8.043749,0.10457 -11.944205,0.41602 -4.817242,0.37141 -9.6262401,1.37628 -14.2696877,2.9136 -4.75022185,1.16634 -9.3860184,2.81136 -13.5387665,5.40431 -3.3690908,2.08791 -6.4784228,4.87152 -9.6437148,7.6999 0,1e-5 -10e-7,1e-5 -2e-6,1e-5 -3.755404,3.36472 -7.640883,6.59976 -11.818883,9.28455 -6.367542,4.08307 -13.224241,7.0277 -20.299264,9.23217 6.768748,-3.01746 13.287643,-6.65378 19.208483,-11.23482 3.871225,-2.99061 7.437114,-6.46812 10.909038,-10.04542 1e-6,0 2e-6,0 3e-6,0 2.952205,-3.04708 5.974771,-6.1296 9.507714,-8.63872 4.3819476,-3.09122 9.3208843,-5.13665 14.3799565,-6.57178 5.1507202,-1.06013 10.4544485,-1.55402 15.6875835,-1.45793 4.226673,0.0886 8.245576,0.51185 12.187784,0.66741 10e-7,0 2e-6,0 3e-6,0 4.633339,0.17986 9.288378,-0.0994 13.930131,-0.89951 7.102655,-1.22136 14.166859,-3.45916 21.140418,-5.93365 z m -1.884561,-5.81704 c -7.104931,2.06291 -14.312462,4.01015 -21.669631,5.05417 -4.82993,0.68287 -9.681714,0.87937 -14.481807,0.62312 0,0 -1e-6,0 -1e-6,0 -4.042432,-0.21191 -8.011744,-0.67748 -11.923233,-0.74985 -4.829551,-0.10253 -9.7145919,0.42254 -14.4872884,1.49434 -4.8423565,0.69207 -9.6183614,1.87136 -14.0053886,4.04503 -3.557622,1.74781 -6.923887,4.21606 -10.349318,6.72451 -10e-7,0 -2e-6,0 -3e-6,0 -4.06492,2.98511 -8.245741,5.82931 -12.664289,8.09625 -6.733312,3.44627 -13.84296,5.70979 -21.098779,7.21242 7.029317,-2.34448 13.869557,-5.33118 20.206658,-9.31822 4.142945,-2.60225 8.029432,-5.71994 11.833486,-8.94517 0,0 1e-6,0 2e-6,0 3.23513,-2.74768 6.544975,-5.52266 10.308129,-7.6731 0.723286,-0.41027 1.457767,-0.794 2.201726,-1.15303 0,0 10e-7,0 10e-7,0 4.0559881,-1.95588 8.3861516,-3.18098 12.7607472,-3.96343 4.4202079,-0.45942 8.9100258,-0.50676 13.3312908,-0.13995 1e-6,0 1e-6,0 1e-6,0 0.810978,0.0671 1.619679,0.14803 2.425363,0.2426 4.196324,0.50355 8.151672,1.31581 12.057139,1.85252 10e-7,0 2e-6,0 3e-6,0 4.590455,0.62785 9.247809,0.79939 13.943425,0.4522 7.184775,-0.52829 14.43156,-2.07022 21.611767,-3.85441 z m -1.269672,-5.88503 c -6.975706,1.29139 -14.032313,2.47021 -21.143473,2.84773 -0.306628,0.0161 -0.613356,0.0307 -0.920181,0.0437 -4.874872,0.20366 -9.72334,-0.0796 -14.475452,-0.8115 -10e-7,0 -10e-7,0 -2e-6,0 -4.002409,-0.61249 -7.906912,-1.47206 -11.792502,-1.93301 -4.796273,-0.58228 -9.7092942,-0.54291 -14.56464797,0.0514 -4.88710143,0.20957 -9.75621053,0.91071 -14.33768603,2.63735 -3.713826,1.3854 -7.309394,3.5052 -10.967941,5.66115 -1e-6,0 -2e-6,0 -3e-6,0 -4.342391,2.56678 -8.785951,4.98514 -13.408474,6.80613 -0.291014,0.11431 -0.582433,0.22661 -0.874255,0.33691 -6.767609,2.56203 -13.768602,4.01655 -20.835101,4.75905 3.916531,-0.88891 7.799432,-1.96653 11.597559,-3.3063 3.211659,-1.13097 6.36315,-2.44777 9.433484,-3.97867 4.381871,-2.18075 8.560243,-4.89743 12.667013,-7.72582 10e-7,0 10e-7,0 2e-6,0 3.493053,-2.41017 7.06267,-4.83794 11.020127,-6.60297 4.904374,-2.16872 10.1494425,-3.20335 15.39239825,-3.61667 5.25914935,-0.0276 10.55713575,0.53093 15.66946475,1.65492 4.126943,0.91858 7.983962,2.1243 11.818279,3.049 1e-6,0 2e-6,0 3e-6,0 4.507121,1.0839 9.125726,1.71716 13.833757,1.8355 3.29947,0.0843 6.633919,-0.0475 9.9817,-0.31295 3.959191,-0.31563 7.938072,-0.81637 11.905931,-1.39498 z m -0.691977,-6.00456 c -7.372554,0.62627 -14.822604,1.11837 -22.241805,0.69337 -4.870154,-0.28151 -9.66614,-1.04578 -14.323159,-2.24442 -1e-6,0 -1e-6,0 -2e-6,0 -3.922706,-1.00561 -7.724497,-2.24523 -11.54672,-3.08421 -4.7167572,-1.04886 -9.6106854,-1.48789 -14.50118266,-1.36937 -4.88461284,-0.26752 -9.79918724,-0.0436 -14.52735334,1.22655 -3.831347,1.01543 -7.616589,2.77125 -11.468161,4.55449 -1e-6,0 -2e-6,0 -3e-6,0 -4.572261,2.12434 -9.230828,4.08825 -14.009002,5.44093 -7.279713,2.05322 -14.696035,2.87468 -22.106377,2.9219 7.353495,-0.91624 14.647741,-2.49894 21.645124,-5.15773 4.573763,-1.73399 8.997339,-4.02147 13.360288,-6.43029 1e-6,0 2e-6,0 3e-6,0 3.711382,-2.05327 7.500467,-4.11907 11.611034,-5.48961 5.092307,-1.67995 10.4134086,-2.20066 15.67212689,-2.10305 5.23738911,0.48311 10.45661911,1.55329 15.43572611,3.17093 4.018307,1.31703 7.739646,2.89571 11.465065,4.19487 10e-7,0 2e-6,0 3e-6,0 4.379414,1.52406 8.912817,2.61351 13.585453,3.19945 7.149034,0.89946 14.557659,0.81337 21.948942,0.47619 z m -0.09518,-6.12869 c -7.399161,-0.0924 -14.862176,-0.32886 -22.205406,-1.47607 -4.820041,-0.75557 -9.519441,-1.98465 -14.038652,-3.63111 0,0 -1e-6,0 -1e-6,0 -3.807018,-1.38282 -7.471151,-2.9857 -11.194364,-4.19129 -4.593264,-1.50122 -9.4218247,-2.41213 -14.3009862,-2.76789 -4.8359099,-0.73943 -9.7492206,-0.99249 -14.5785108,-0.18661 -3.911952,0.6393 -7.849869,2.01954 -11.856568,3.4195 -10e-7,0 -2e-6,0 -3e-6,0 -4.757134,1.66931 -9.584734,3.16908 -14.472039,4.04902 -7.445238,1.33303 -14.906816,1.42771 -22.287271,0.75525 7.408245,-0.19551 14.822271,-1.05822 22.045227,-3.0215 4.720827,-1.27939 9.345843,-3.12476 13.922155,-5.09836 1e-6,0 2e-6,0 3e-6,0 3.893288,-1.68302 7.865052,-3.37213 12.089301,-4.33823 5.2314014,-1.17899 10.5779719,-1.18183 15.802486,-0.57508 5.1659268,0.98838 10.25693,2.55906 15.056238,4.65124 3.872087,1.69996 7.423456,3.63176 11.00585,5.28692 1e-6,0 2e-6,0 3e-6,0 4.211589,1.94259 8.618341,3.46914 13.212348,4.50849 7.028444,1.59316 14.410652,2.23119 21.80019,2.61572 z m 0.497633,-6.13414 c -7.355424,-0.8088 -14.760763,-1.76708 -21.958859,-3.61967 -4.72453,-1.21856 -9.283243,-2.89624 -13.621928,-4.97158 -10e-7,0 -10e-7,0 -10e-7,0 -3.655345,-1.74415 -7.146874,-3.69348 -10.735432,-5.25427 -4.425794,-1.93933 -9.1427131,-3.315635 -13.9640597,-4.144149 -4.7409924,-1.206155 -9.6063108,-1.93599 -14.4911573,-1.602119 -3.955642,0.256995 -8.009235,1.25005 -12.133162,2.256186 -1e-6,1e-6 -2e-6,1e-6 -3e-6,1e-6 -4.897013,1.201691 -9.847669,2.227631 -14.797587,2.630391 -7.539897,0.60614 -14.975864,-0.0224 -22.256485,-1.40673 7.392651,0.5229 14.855859,0.38222 22.235799,-0.873527 4.823063,-0.816982 9.605753,-2.207294 14.352614,-3.730026 1e-6,0 2e-6,0 3e-6,-10e-7 4.03877,-1.299436 8.156424,-2.597152 12.454927,-3.148841 0.04764,-0.006 0.09528,-0.01183 0.14292,-0.0176 5.2743856,-0.638721 10.5462133,-0.118923 15.6404933,0.984863 4.9995819,1.474521 9.8700687,3.511245 14.4081727,6.027537 0.04099,0.0227 0.08195,0.0455 0.122891,0.0683 3.688282,2.06734 7.035391,4.33241 10.440636,6.32514 1e-6,0 2e-6,0 3e-6,0 4.003644,2.33946 8.242297,4.28402 12.714439,5.76258 6.841707,2.2651 14.127929,3.61509 21.445776,4.7135 z m 1.082071,-6.02373 c -5.186143,-1.09065 -10.386853,-2.26687 -15.490597,-3.77119 -10e-7,0 -10e-7,0 -10e-7,0 -2.022623,-0.59616 -4.029617,-1.24512 -6.011781,-1.96656 -4.583758,-1.67101 -8.957552,-3.78293 -13.072857,-6.27122 -1e-6,-10e-7 -1e-6,-10e-7 -1e-6,-10e-7 -3.46757,-2.09208 -6.751682,-4.373782 -10.170548,-6.277943 -4.215103,-2.362761 -8.775281,-4.192841 -13.4928081,-5.487943 -4.6007004,-1.663102 -9.3716148,-2.86426 -14.2655526,-3.009485 -3.9617003,-0.130897 -8.0926543,0.460815 -12.2951823,1.060087 -10e-7,0 -2e-6,0 -3e-6,0 -4.991028,0.718525 -10.018689,1.259049 -14.984823,1.179643 -2.14674,-0.03641 -4.275137,-0.1682 -6.385545,-0.388196 0,0 -10e-7,0 -10e-7,0 -5.325262,-0.555099 -10.536005,-1.680548 -15.628684,-3.176179 1.794082,0.304221 3.596544,0.570692 5.405552,0.790425 5.558689,0.675214 11.177223,0.900593 16.811503,0.498468 4.88022,-0.34465 9.776007,-1.262547 14.648488,-2.313546 1e-6,-10e-7 2e-6,-10e-7 3e-6,-10e-7 4.146028,-0.898053 8.369924,-1.785294 12.7012588,-1.913874 5.3606356,-0.142119 10.6062375,0.89209 15.6139864,2.500402 4.8762728,1.97134 9.5660308,4.499665 13.8683958,7.482823 3.468829,2.418564 6.578109,5.00193 9.772075,7.318442 1e-6,0 1e-6,1e-6 2e-6,2e-6 3.755576,2.720146 7.784145,5.067986 12.091089,6.973656 4.9709,2.20188 10.248662,3.90258 15.618566,5.38676 1.747567,0.483 3.505426,0.94236 5.267465,1.38543 z m 1.666375,-5.88564 c -7.058979,-2.21994 -14.137882,-4.59588 -20.8398,-7.809451 -4.398353,-2.11181 -8.544791,-4.642332 -12.398309,-7.520807 -1e-6,0 -1e-6,-10e-7 -1e-6,-10e-7 C 29.28177,87.307506 26.234654,84.716968 23.016553,82.489919 19.050441,79.729133 14.689004,77.465947 10.119186,75.7198 5.7013054,73.618707 1.0692184,71.961069 -3.7875021,71.341582 -7.7177826,70.826833 -11.886417,71.014077 -16.126698,71.20053 c -10e-7,0 -2e-6,0 -3e-6,0 -5.036523,0.228211 -10.091804,0.273979 -15.025689,-0.29099 -7.51405,-0.867797 -14.686943,-2.926232 -21.56093,-5.696246 7.150836,1.946569 14.499559,3.255658 21.9823,3.455991 4.889532,0.134549 9.850324,-0.300349 14.801268,-0.87186 1e-6,0 2e-6,0 3e-6,0 4.213156,-0.490033 8.5030949,-0.963152 12.8265026,-0.671354 5.3491761,0.378075 10.4698295,1.915292 15.2980584,4.001033 4.662213,2.434313 9.08496,5.40472 13.078138,8.790811 3.21825,2.743373 6.062591,5.616538 9.016413,8.233624 10e-7,10e-7 2e-6,10e-7 2e-6,2e-6 3.473565,3.073585 7.253992,5.804816 11.354134,8.123318 6.271996,3.550021 13.157967,6.287131 20.123813,8.783771 z M 68.00864,99.327319 C 61.198054,96.434305 54.382726,93.383465 48.023471,89.535656 43.850272,87.007619 39.968126,84.087533 36.411172,80.850077 c 0,0 -10e-7,-10e-7 -10e-7,-10e-7 C 33.413188,78.126666 30.631113,75.254069 27.64415,72.726002 23.964455,69.594316 19.843757,66.918511 15.465383,64.737129 11.272674,62.217254 6.8237881,60.117783 2.0500184,59.03074 -1.8118273,58.137681 -5.9793699,57.920859 -10.218098,57.696166 c -1e-6,0 -2e-6,0 -4e-6,0 -5.035333,-0.260171 -10.071516,-0.704168 -14.927538,-1.744546 -7.394753,-1.591784 -14.334396,-4.335715 -20.90758,-7.758287 6.92858,2.630275 14.115883,4.645631 21.54447,5.569526 4.853792,0.607336 9.833968,0.654215 14.8178212,0.563842 1.1e-6,0 2.2e-6,0 3.3e-6,0 4.2415193,-0.08058 8.5579676,-0.136956 12.8328712,0.572513 5.2874999,0.894773 10.2338993,2.923118 14.8356353,5.469161 4.402563,2.87676 8.514701,6.263337 12.160294,10.01981 2.936727,3.041794 5.489652,6.175286 8.176573,9.06486 1e-6,0 2e-6,10e-7 2e-6,2e-6 3.160087,3.394041 6.658853,6.477693 10.515459,9.182171 5.899131,4.140433 12.487552,7.532268 19.178731,10.692101 z m 2.772682,-5.469403 C 64.285314,90.315774 57.798679,86.618221 51.842664,82.173554 47.93437,79.253859 44.353453,75.97325 41.127838,72.408017 c 0,0 -10e-7,-10e-7 -10e-7,-10e-7 C 38.408615,69.4083 35.919623,66.280421 33.19417,63.473207 29.83832,59.997747 26.00036,56.92981 21.857164,54.329003 17.931977,51.409555 13.710667,48.8829 9.0655819,47.335003 5.3091862,46.069175 1.1815078,45.44869 -3.0163631,44.814524 c -1.1e-6,0 -2.2e-6,0 -3.3e-6,0 -4.9874623,-0.74662 -9.9578256,-1.675394 -14.6903716,-3.181025 -7.205988,-2.300248 -13.846077,-5.704401 -20.054353,-9.750476 6.640139,3.290034 13.598247,5.991789 20.903737,7.629475 4.773,1.073712 9.7269418,1.601147 14.6981484,1.993562 1.1e-6,0 2.2e-6,0 3.3e-6,0 3.6124282,0.282012 7.2780962,0.584179 10.877349,1.370166 0.6167869,0.134536 1.2315852,0.283032 1.8438763,0.44745 5.177485,1.407968 9.898678,3.91638 14.225822,6.905294 4.096222,3.298294 7.852585,7.075447 11.114046,11.169565 0.38395,0.484539 0.75932,0.970345 1.12808,1.456361 2.151067,2.838215 4.082015,5.679932 6.125328,8.355644 10e-7,1e-6 10e-7,2e-6 2e-6,3e-6 2.815141,3.681516 5.998728,7.086619 9.575064,10.150214 5.47008,4.689714 11.698551,8.703192 18.050957,12.497159 z m 3.258227,-5.099519 C 67.926141,84.590803 61.831208,80.275541 56.33651,75.270707 52.731217,71.983471 49.487363,68.369449 46.628689,64.504292 c -1e-6,-1e-6 -1e-6,-1e-6 -1e-6,-2e-6 C 44.218234,61.251698 42.051991,57.892187 39.618989,54.828272 36.625114,51.036825 33.1112,47.603507 29.247121,44.604728 25.631567,41.310559 21.682571,38.377739 17.214605,36.376114 13.60284,34.743439 9.5571323,33.715937 5.4408039,32.670475 c -10e-7,-1e-6 -2.1e-6,-1e-6 -3.2e-6,-1e-6 -4.89126717,-1.235306 -9.7503124,-2.646363 -14.3154271,-4.60774 -6.9502636,-2.994176 -13.2266156,-7.032357 -19.0040346,-11.67313 6.286873,3.925686 12.951995,7.293121 20.0665138,9.639049 4.64785,1.536429 9.5287839,2.549188 14.4370567,3.433217 1.1e-6,0 2.2e-6,0 3.3e-6,0 4.1779212,0.748754 8.4221412,1.539752 12.4741202,3.075044 5.008377,1.915878 9.458762,4.877509 13.469834,8.278471 3.750774,3.686045 7.116119,7.815259 9.952194,12.213986 2.281525,3.558849 4.169903,7.130619 6.240865,10.486441 0,1e-6 10e-7,1e-6 10e-7,2e-6 2.436508,3.942495 5.270489,7.643058 8.530656,11.041177 4.986129,5.201337 10.796082,9.802541 16.746966,14.201406 z m 3.715003,-4.729838 C 72.082471,79.278238 66.449063,74.379137 61.483378,68.851517 58.225547,65.22126 55.360403,61.300885 52.900409,57.169829 c -1e-6,0 -1e-6,-10e-7 -1e-6,-10e-7 -2.074945,-3.476819 -3.898809,-7.034831 -6.019235,-10.323375 -2.607142,-4.067778 -5.76943,-7.828227 -9.32227,-11.190662 -3.276606,-3.632147 -6.92077,-6.936859 -11.170249,-9.367548 -3.433728,-1.979439 -7.356727,-3.400752 -11.346356,-4.848872 -1e-6,0 -2e-6,-1e-6 -3e-6,-1e-6 C 10.300907,19.725559 5.6110306,17.837688 1.2670798,15.431737 -5.3456994,11.760768 -11.187191,7.119167 -16.478116,1.9313487 c 5.863611,4.5302165 12.1552643,8.5450973 18.9945355,11.5874203 4.4676644,1.991351 9.2187785,3.484254 14.0120665,4.849004 10e-7,1e-6 2e-6,1e-6 3e-6,1e-6 4.080406,1.157966 8.224519,2.362308 12.106526,4.286817 4.796524,2.396866 8.93814,5.777817 12.59973,9.553393 3.374755,4.034011 6.322827,8.471684 8.71501,13.128017 1.922437,3.766006 3.450061,7.50797 5.177978,11.054118 10e-7,1e-6 10e-7,2e-6 10e-7,3e-6 2.033481,4.166431 4.48301,8.132561 7.3862,11.83956 4.439721,5.673737 9.758162,10.831164 15.240618,15.798877 z M 81.99532,79.628141 C 76.811727,74.347672 71.684049,68.920557 67.283205,62.931948 c -2.88688,-3.932688 -5.354433,-8.11621 -7.399804,-12.469071 0,-10e-7 0,-10e-7 -10e-7,-2e-6 C 58.157431,46.798943 56.688038,43.079414 54.896666,39.599992 52.69648,35.297628 49.913234,31.248094 46.702803,27.556736 43.793478,23.623693 40.486434,19.981098 36.4927,17.148974 33.267109,14.845236 29.500913,13.048868 25.671946,11.21822 c -10e-7,-1e-6 -2e-6,-1e-6 -3e-6,-2e-6 C 21.120796,9.0497633 16.639033,6.71166 12.55176,3.8917604 6.3305273,-0.40931174 0.97053143,-5.6005225 -3.791003,-11.279274 c 5.393189,5.0821673 11.2608727,9.6947616 17.768569,13.3921272 4.250684,2.4192258 8.83222,4.3695442 13.469458,6.1948574 1e-6,4e-7 2e-6,8e-7 3e-6,1.2e-6 3.947932,1.5500512 7.955738,3.1512952 11.633178,5.4433712 4.541926,2.850934 8.336811,6.617304 11.615512,10.730058 2.968162,4.342193 5.472708,9.044725 7.402491,13.91166 1.548508,3.935145 2.70595,7.808679 4.080491,11.507621 0,1e-6 10e-7,2e-6 10e-7,3e-6 1.618279,4.346272 3.668415,8.534679 6.194889,12.509376 3.86315,6.083105 8.650601,11.73789 13.621731,17.21834 z m 4.676769,-3.996623 C 82.024145,69.873482 77.446402,63.974177 73.646226,57.586377 71.153787,53.391845 69.102705,48.988383 67.487901,44.457811 c 0,0 0,-10e-7 0,-10e-7 C 66.124375,40.643873 65.021542,36.799814 63.575703,33.163266 61.802697,28.668061 59.425909,24.367487 56.589056,20.381938 54.075346,16.185081 51.137708,12.238613 47.436979,9.0326841 44.449627,6.4271129 40.874327,4.274442 37.239981,2.0813972 c -10e-7,-6e-7 -2e-6,-1.1e-6 -3e-6,-1.7e-6 C 32.919436,-0.51784253 28.68473,-3.2795961 24.88965,-6.4828199 19.114026,-11.367306 14.282161,-17.054315 10.092915,-23.167889 c 4.875607,5.581539 10.268819,10.742115 16.388613,15.0531695 3.996908,2.8200536 8.369107,5.2050585 12.809231,7.4707776 0,5e-7 10e-7,10e-7 2e-6,1.5e-6 3.780502,1.9250104 7.6158,3.9067124 11.054078,6.5447069 0.427433,0.3301051 0.846423,0.668853 1.257246,1.0156152 0,2e-7 0,4e-7 0,6e-7 3.668808,3.0967097 6.685596,6.8247647 9.25992,10.7928247 2.276296,4.146217 4.15218,8.546258 5.559403,13.048714 0,0 0,0 0,1e-6 0.157578,0.504173 0.309344,1.009647 0.455247,1.516225 1.159738,4.066268 1.93757,8.032746 2.948404,11.846951 0,10e-7 10e-7,2e-6 10e-7,3e-6 1.190905,4.482015 2.826702,8.84941 4.956725,13.050624 3.256415,6.429441 7.473397,12.522718 11.890304,18.459793 z m 5.023006,-3.518449 C 88.09196,66.632741 84.558667,61.046159 81.593065,55.166301 81.212813,54.41238 80.842247,53.653499 80.482732,52.889171 78.408425,48.473303 76.79386,43.892492 75.627535,39.226814 c 0,-10e-7 0,-10e-7 -10e-7,-2e-6 C 74.64157,35.298734 73.919084,31.365433 72.834749,27.60519 71.508542,22.958466 69.561901,18.446728 67.126704,14.203744 65.033701,9.7819309 62.494386,5.5680239 59.123981,2.016614 c -2.718987,-2.88437048 -6.067043,-5.3753367 -9.47094,-7.9115227 -1e-6,-7e-7 -2e-6,-1.3e-6 -3e-6,-2e-6 -4.047352,-3.0072034 -7.994935,-6.1667073 -11.462107,-9.7227073 -0.599575,-0.616131 -1.186305,-1.241011 -1.760503,-1.874379 -4.478189,-4.939672 -8.178685,-10.413683 -11.346554,-16.168122 1.95871,2.739069 4.02946,5.406012 6.241479,7.955004 2.656328,3.060978 5.516163,5.951082 8.611819,8.616233 3.704995,3.19456 7.825024,5.99329 12.022666,8.6809405 1e-6,6e-7 2e-6,1.2e-6 3e-6,1.8e-6 3.574444,2.28428 7.196806,4.6309382 10.36102,7.59154373 3.90417,3.67624107 6.898045,8.10604107 9.318604,12.77567097 2.07148,4.834617 3.618205,9.933087 4.569377,15.081522 0.757479,4.160464 1.143515,8.184651 1.777347,12.079213 0,10e-7 0,2e-6 0,3e-6 0.747881,4.576743 1.951383,9.081726 3.663915,13.46908 1.428207,3.663374 3.157324,7.253459 5.048036,10.790325 1.574467,2.945279 3.261373,5.854065 4.996955,8.733651 z m 5.3383,-3.006505 C 93.5881,62.557656 90.238776,55.883842 87.747143,48.881155 86.113899,44.283426 84.954392,39.56603 84.24777,34.808175 c 0,0 0,-10e-7 0,-10e-7 C 83.648848,30.802104 83.311547,26.816838 82.596909,22.9691 81.727492,18.215586 80.22711,13.536708 78.214557,9.0779002 76.559903,4.4742652 74.440821,0.03439671 71.430733,-3.8270839 c -2.426436,-3.1344186 -5.516714,-5.9386513 -8.65722,-8.7939821 -1e-6,-10e-7 -2e-6,-2e-6 -3e-6,-2e-6 -3.734985,-3.38672 -7.354628,-6.916204 -10.457774,-10.793548 -4.720731,-5.91023 -8.360469,-12.424957 -11.286915,-19.233879 3.702943,6.41978 7.995352,12.526713 13.16423,17.941227 3.374993,3.540652 7.201877,6.727386 11.118136,9.81017 10e-7,10e-7 2e-6,10e-7 3e-6,2e-6 3.335257,2.620772 6.713142,5.3076037 9.575637,8.5608059 3.529637,4.03715 6.08006,8.7358154 8.036448,13.6176595 1.592991,5.0122086 2.638408,10.2360726 3.086486,15.4523076 0.350982,4.214173 0.345391,8.257072 0.597837,12.195478 0,10e-7 0,2e-6 0,3e-6 0.299678,4.62856 1.058185,9.230487 2.334248,13.764791 1.949595,6.938551 4.907454,13.73282 8.091549,20.412615 z m 5.626395,-2.489891 C 99.865503,59.765302 97.178692,52.798552 95.376738,45.587633 94.1963,40.853445 93.49845,36.04615 93.255061,31.242875 c 0,-1e-6 0,-1e-6 0,-2e-6 C 93.046201,27.198176 93.09581,23.199817 92.757689,19.30152 92.353346,14.486855 91.315428,9.684843 89.746231,5.0520317 88.547274,0.30989912 86.870404,-4.3145072 84.249115,-8.4494468 c -2.110912,-3.3547502 -4.915599,-6.4450372 -7.765399,-9.5910102 -10e-7,-1e-6 -2e-6,-2e-6 -2e-6,-3e-6 -3.390136,-3.732422 -6.651453,-7.595831 -9.364574,-11.755491 -4.126259,-6.339652 -7.117521,-13.176191 -9.370238,-20.236071 3.063488,6.748094 6.744057,13.24214 11.365139,19.131717 3.0168,3.850817 6.518337,7.392994 10.119059,10.840477 1e-6,1e-6 2e-6,2e-6 2e-6,2e-6 3.066988,2.931388 6.169934,5.932842 8.70319,9.448505 3.121146,4.3606583 5.200642,9.2853477 6.670716,14.3343818 1.095723,5.1432727 1.626236,10.4434862 1.565999,15.6772762 -0.05961,4.227277 -0.455554,8.249147 -0.584378,12.192471 0,10e-7 0,2e-6 0,3e-6 -0.148424,4.63463 0.162306,9.287791 0.993933,13.924078 1.269523,7.094312 3.555308,14.143181 6.077228,21.099784 z m 5.80827,-1.92591 c -2.11194,-7.09053 -4.10863,-14.28458 -5.20297,-21.634587 -0.71589,-4.825246 -0.94548,-9.675752 -0.72211,-14.477693 0,0 0,-10e-7 0,-10e-7 0.18422,-4.043962 0.62247,-8.016541 0.66768,-11.928461 0.069,-4.830176 -0.49023,-9.7113174 -1.59536,-14.4763113 -0.72591,-4.8373063 -1.93859,-9.6048268 -4.142599,-13.9766137 -1.772417,-3.545366 -4.2637,-6.894495 -6.795476,-10.302607 -1e-6,-1e-6 -2e-6,-2e-6 -2e-6,-3e-6 -3.012804,-4.044311 -5.885408,-8.20559 -8.182507,-12.608537 -3.49223,-6.709594 -5.804526,-13.803596 -7.357239,-21.048871 2.392705,7.013103 5.426124,13.832805 9.456241,20.142499 2.630415,4.125056 5.774399,7.990115 9.025433,11.771863 10e-7,10e-7 10e-7,2e-6 2e-6,2e-6 2.769635,3.216127 5.56718,6.506653 7.743677,10.254641 1.05179,1.824552 1.93391,3.7217619 2.67599,5.6648371 1.14748,3.0059903 1.96108,6.1205092 2.54537,9.2609585 0.35234,3.1748506 0.49313,6.3877257 0.41859,9.5858974 -0.048,2.06732 -0.18533,4.128358 -0.41063,6.170569 -0.47431,4.199778 -1.25931,8.16088 -1.76929,12.070194 0,10e-7 0,2e-6 0,3e-6 -0.59643,4.594955 -0.73626,9.253637 -0.35703,13.946942 0.5773,7.181259 2.16876,14.417431 4.00223,21.585279 z m 5.88374,-1.314357 c -1.39828,-7.266386 -2.67724,-14.622099 -3.04602,-22.042051 -0.0596,-1.212142 -0.0898,-2.422629 -0.0905,-3.630615 0,-1e-6 0,-1e-6 0,-1e-6 -1.2e-4,-3.648457 0.27367,-7.275126 0.7983,-10.848464 0,0 0,-10e-7 0,-10e-7 0.58432,-4.00665 1.41659,-7.917047 1.8506,-11.805744 0.54901,-4.8002 0.47584,-9.7128236 -0.15192,-14.56396759 -0.24323,-4.88554131 -0.97785,-9.74970721 -2.73622,-14.31918241 -1.41112,-3.704196 -3.55602,-7.28507 -5.73772,-10.928654 0,-10e-7 0,-2e-6 0,-3e-6 -1.95099,-3.24839 -3.8161,-6.555273 -5.41202,-9.952766 0,0 0,0 0,0 -0.529323,-1.124843 -1.028629,-2.259783 -1.490272,-3.406303 -2.818645,-7.020055 -4.421483,-14.307172 -5.247919,-21.67228 1.333434,5.690591 3.071555,11.303961 5.419348,16.692497 0.628061,1.444305 1.298942,2.872968 2.015073,4.284206 2.2118,4.366727 4.9581,8.526256 7.81534,12.613448 0,1e-6 0,2e-6 0,3e-6 2.43471,3.47637 4.88731,7.029211 6.67964,10.974447 2.20255,4.889357 3.27309,10.1271946 3.72231,15.36716912 0.0636,5.25881028 -0.45859,10.56046488 -1.54723,15.68038988 -0.89004,4.133153 -2.06886,7.998403 -2.9666,11.839078 0,1e-6 0,2e-6 0,3e-6 -1.05221,4.514574 -1.65275,9.137601 -1.73775,13.846491 -0.0281,1.522109 -0.01,3.051427 0.0459,4.585719 0.21151,5.7245 0.93526,11.518126 1.81766,17.286581 z m 5.99066,-0.730845 c -0.67678,-7.368047 -1.22023,-14.814536 -0.84652,-22.23647 0.24783,-4.871966 0.97889,-9.673072 2.1454,-14.338155 0,0 1e-5,-1e-6 1e-5,-1e-6 0.97855,-3.929471 2.19206,-7.739607 3.00489,-11.567438 1.01659,-4.7237689 1.42227,-9.6205456 1.27042,-14.51009352 0.23423,-4.88629468 -0.0232,-9.79920368 -1.32559,-14.51856548 -1.04158,-3.824308 -2.82331,-7.597451 -4.63303,-11.436719 -1e-5,-10e-7 -1e-5,-2e-6 -1e-5,-3e-6 -2.15578,-4.557603 -4.15189,-9.202587 -5.53756,-13.971359 -2.10349,-7.265442 -2.97607,-14.675929 -3.07407,-22.085743 0.96689,7.347015 2.60002,14.630208 5.30714,21.609194 1.76559,4.561764 4.0836,8.969566 6.52236,13.315941 0,0 0,1e-6 1e-5,2e-6 2.07874,3.697255 4.1704,7.472145 5.56894,11.573257 1.71464,5.080717 2.27153,10.3981338 2.2097,15.65737593 -0.44746,5.24053647 -1.48212,10.46690507 -3.06575,15.45687607 -1.28958,4.027154 -2.84275,7.759129 -4.11624,11.493299 0,1e-6 0,2e-6 0,3e-6 -1.49389,4.389681 -2.55197,8.930412 -3.10557,13.606942 -0.84998,7.155011 -0.71263,14.562877 -0.32453,21.951657 z m 6.12396,-0.137082 c 0.0421,-7.399589 0.22763,-14.863999 1.32472,-22.214814 0.72268,-4.825036 1.91969,-9.53265 3.53535,-14.062921 0,-1e-6 0,-1e-6 0,-2e-6 1.35688,-3.816307 2.93483,-7.491236 4.11507,-11.222557 1.46995,-4.603361 2.34797,-9.438016 2.67051,-14.3194886 0.70649,-4.8408336 0.9261,-9.7557569 0.0874,-14.5794394 -0.66588,-3.907502 -2.07285,-7.835916 -3.50004,-11.832969 0,-1e-6 0,-2e-6 0,-3e-6 -1.70164,-4.745633 -3.23429,-9.562874 -4.14753,-14.444041 -1.38377,-7.435938 -1.52931,-14.896653 -0.90709,-22.281486 0.24599,7.406699 1.15928,14.814625 3.17173,22.023994 1.31155,4.711973 3.18835,9.324285 5.19299,13.887027 0,1e-6 0,2e-6 0,3e-6 1.70943,3.881715 3.42544,7.841864 4.42024,12.059425 1.21453,5.2232369 1.25382,10.5696698 0.68273,15.7982129 -0.95311,5.1725608 -2.48905,10.2741721 -4.54857,15.0876121 -1.67359,3.88357 -3.58127,7.44798 -5.21207,11.041521 0,1e-6 0,1e-6 0,2e-6 -1.91393,4.22467 -3.41044,8.641658 -4.41845,13.242591 -1.5452,7.03906 -2.13284,14.425391 -2.46699,21.817333 z m 6.13753,0.456321 c 0.75862,-7.360787 1.66649,-14.772475 3.47014,-21.983008 1.18645,-4.73271 2.83319,-9.302731 4.87906,-13.655473 0,0 0,-1e-6 0,-1e-6 1.71932,-3.667158 3.6449,-7.171935 5.18114,-10.771101 1.90907,-4.438976 3.25293,-9.1652358 4.04833,-13.9921539 1.17359,-4.749158 1.86999,-9.6193669 1.50275,-14.5018031 -0.28401,-3.95378 -1.30461,-8.000466 -2.33871,-12.117405 0,-10e-7 0,-2e-6 0,-4e-6 -1.23491,-4.888667 -2.29441,-9.832191 -2.73078,-14.779234 -0.65735,-7.535568 -0.0794,-14.975642 1.25522,-22.265548 -0.47258,7.396039 -0.28118,14.858099 1.02459,22.229264 0.84967,4.817353 2.27233,9.590411 3.8272,14.326704 0,10e-7 0,2e-6 0,3e-6 1.32678,4.029753 2.65243,8.138373 3.23351,12.432953 0.14255,1.079281 0.23599,2.1592889 0.28553,3.2380415 0.19448,4.2356724 -0.28462,8.44874672 -1.14413,12.5516195 -1.15818,4.0287655 -2.67937,7.978144 -4.52427,11.737888 -0.46987,0.957539 -0.96062,1.902939 -1.4714,2.83473 -2.04208,3.702402 -4.28442,7.064958 -6.25407,10.483743 0,1e-6 0,1e-6 -1e-5,2e-6 -2.31232,4.01954 -4.22818,8.271336 -5.67639,12.753437 -2.21868,6.856964 -3.51912,14.152188 -4.56771,21.477346 z m 6.03526,1.041346 c 1.47284,-7.25164 3.09633,-14.539966 5.58971,-21.541054 0.0305,-0.08541 0.0611,-0.170746 0.0919,-0.256012 1.62442,-4.502341 3.6745,-8.804409 6.08853,-12.859964 0,0 0,-10e-7 0,-10e-7 2.06803,-3.481911 4.32706,-6.781596 6.20775,-10.213406 2.33383,-4.231164 4.13276,-8.803707 5.39562,-13.5299541 1.63166,-4.61193526 2.80025,-9.3909227 2.91195,-14.2857546 0.10376,-3.9625143 -0.51634,-8.0893703 -1.14463,-12.2877753 0,-1e-6 0,-2e-6 0,-3e-6 -0.73899,-4.893406 -1.30656,-9.823258 -1.2853,-14.699725 4e-4,-0.09235 0.001,-0.184684 0.002,-0.276997 0.0758,-7.564334 1.37367,-14.912899 3.41287,-22.037932 -0.72089,4.435724 -1.20763,8.920754 -1.34063,13.427312 -0.0864,2.925462 -0.0251,5.85991 0.20511,8.797984 0.3785,4.877876 1.33033,9.767391 2.4149,14.632659 0,10e-7 0,2e-6 0,3e-6 0.92662,4.139864 1.84281,8.357643 2.00098,12.6880107 0.17875,5.3595545 -0.81973,10.6120707 -2.39391,15.6306496 -1.93809,4.8895777 -4.43443,9.5964297 -7.3881,13.9190427 -2.39479,3.485245 -4.95672,6.612116 -7.2511,9.821923 0,1e-6 0,2e-6 0,3e-6 -2.69411,3.774178 -5.0139,7.818894 -6.8896,12.138967 -1.13071,2.601319 -2.12294,5.286389 -3.02038,8.022575 -1.38249,4.214969 -2.54315,8.550499 -3.60747,12.909449 z m 5.89307,1.625018 c 2.17183,-7.073919 4.49937,-14.168867 7.66705,-20.892549 2.08169,-4.412656 4.58379,-8.576247 7.43591,-12.449263 0,0 0,-10e-7 0,-10e-7 2.39866,-3.26383 4.96841,-6.328485 7.17352,-9.56166 2.73375,-3.984799 4.96722,-8.361548 6.68224,-12.9431534 2.071,-4.4320865 3.69709,-9.07535924 4.28353,-13.9361821 0.488,-3.9336917 0.2724,-8.1009475 0.057,-12.3398615 0,-2e-6 0,-3e-6 0,-4e-6 -0.26254,-5.034853 -0.34285,-10.089721 0.18839,-15.027356 0.81642,-7.51981 2.82582,-14.706577 5.54897,-21.599259 -1.89771,7.163943 -3.15651,14.521445 -3.30572,22.005398 -0.10114,4.890348 0.3676,9.848067 0.9728,14.794993 0,1e-6 0,2e-6 0,3e-6 0.5187,4.209711 1.02096,8.4963068 0.75856,12.8215939 -0.3417,5.3516178 -1.84402,10.4826441 -3.89683,15.3249981 -2.4025,4.678716 -5.34274,9.121615 -8.70163,13.137734 -2.72145,3.236838 -5.57525,6.100627 -8.17216,9.072167 0,1e-6 -1e-5,2e-6 -1e-5,3e-6 -3.04986,3.494374 -5.75521,7.2933 -8.04563,11.409147 -3.50706,6.296044 -6.197,13.200545 -8.64603,20.183252 z m 5.74565,2.202411 c 2.84658,-6.830168 5.85099,-13.666109 9.65553,-20.051378 2.49964,-4.190289 5.39335,-8.092179 8.60664,-11.671071 0,0 0,-10e-7 0,-10e-7 2.70304,-3.016437 5.55673,-5.81802 8.06439,-8.822187 3.10655,-3.701007 5.75408,-7.839962 7.90545,-12.233192 2.49112,-4.209887 4.56008,-8.6730707 5.61454,-13.4541508 0.8667,-3.8678536 1.05519,-8.0367373 1.2511,-12.2768562 0,-10e-7 0,-2e-6 0,-4e-6 0.22597,-5.036939 0.63578,-10.075986 1.64314,-14.938957 1.5415,-7.405387 4.23817,-14.363555 7.61591,-20.95993 -2.58309,6.946329 -4.54955,14.147166 -5.42301,21.581801 -0.57438,4.857768 -0.5875,9.838072 -0.46332,14.821102 0,10e-7 0,2e-6 0,4e-6 0.10934,4.2407934 0.19504,8.5566714 -0.48522,12.836301 -0.85864,5.2934641 -2.85292,10.253695 -5.36723,14.872851 -2.84639,4.422264 -6.20462,8.557613 -9.93617,12.228841 -3.02172,2.957485 -6.13792,5.531715 -9.00929,8.238232 0,10e-7 0,10e-7 0,2e-6 -3.37264,3.183103 -6.43258,6.70272 -9.11086,10.577608 -4.10036,5.927119 -7.44734,12.538449 -10.5616,19.250985 z m 5.49128,2.736837 c 3.49739,-6.520234 7.1505,-13.03205 11.55451,-19.018328 2.89303,-3.928173 6.14929,-7.531426 9.69255,-10.781418 0,0 0,0 0,-10e-7 2.98119,-2.739732 6.09203,-5.250198 8.88038,-7.994986 3.45223,-3.379788 6.49333,-7.238951 9.06523,-11.400071 2.89204,-3.945335 5.38921,-8.184056 6.905,-12.8396598 1.23986,-3.7650001 1.83204,-7.8967394 2.43753,-12.0987583 0,-1.1e-6 0,-2.2e-6 1e-5,-3.3e-6 0.71255,-4.9923429 1.60748,-9.9688476 3.08081,-14.7115426 2.25106,-7.221495 5.60972,-13.88476 9.613,-20.120724 -3.24453,6.662531 -5.89878,13.638927 -7.48672,20.955301 -1.0412,4.780137 -1.53497,9.7374065 -1.89346,14.7109859 0,1.1e-6 0,2.2e-6 0,3.3e-6 -0.30144,4.2331126 -0.63492,8.5387399 -1.73033,12.7321348 -0.0679,0.25659 -0.13853,0.512106 -0.21179,0.766551 0,0 0,1e-6 0,1e-6 -1.40686,4.889387 -3.78139,9.374766 -6.59358,13.507659 -3.1078,3.915458 -6.65021,7.527687 -10.4894,10.700665 0,0 0,0 0,1e-6 -0.1999,0.165084 -0.4006,0.328986 -0.6021,0.491694 -3.2956,2.647187 -6.64472,4.905379 -9.76246,7.320118 0,0 0,1e-6 0,2e-6 -3.66243,2.840365 -7.04599,6.047154 -10.08527,9.644349 -4.65253,5.502009 -8.62348,11.757766 -12.37391,18.136027 z m 5.12932,3.22749 c 3.30622,-4.925446 6.71421,-9.830865 10.48832,-14.436864 0,0 0,-10e-7 0,-10e-7 0.93364,-1.140334 1.89036,-2.261786 2.87532,-3.358739 3.26165,-3.628785 6.85256,-6.898496 10.69741,-9.784539 0,0 0,-10e-7 0,-10e-7 3.23547,-2.433483 6.57967,-4.62329 9.62656,-7.0776 3.7705,-3.020245 7.17944,-6.557796 10.1514,-10.442538 3.26907,-3.638267 6.17453,-7.607435 8.14502,-12.089329 1.6075,-3.623124 2.60668,-7.67616 3.62314,-11.8001015 0,-1e-6 0,-2.1e-6 0,-3.2e-6 1.20084,-4.90026598 2.57745,-9.7697163 4.5065,-14.3490124 0.58412,-1.3828599 1.20807,-2.7399029 1.86983,-4.0720929 0,-1e-6 0,-1e-6 0,-1e-6 2.67526,-5.381418 5.98268,-10.352997 9.6701,-15.011759 -1.36205,2.214827 -2.65852,4.474589 -3.86393,6.783819 -2.22965,4.274678 -4.1438,8.719542 -5.63391,13.349015 -1.50351,4.6591087 -2.48173,9.5476569 -3.33128,14.4624544 0,1.1e-6 0,2.2e-6 0,3.3e-6 -0.71941,4.1834503 -1.48079,8.4333333 -2.98797,12.4959373 -1.88112,5.021633 -4.81207,9.492253 -8.18535,13.526586 -3.66014,3.776005 -7.76608,7.169635 -12.14497,10.036154 -3.54289,2.306157 -7.10127,4.219487 -10.44233,6.314126 0,1e-6 -1e-5,1e-6 -1e-5,2e-6 -3.92513,2.464322 -7.60544,5.324711 -10.98034,8.609179 -3.35335,3.260837 -6.44692,6.873163 -9.40136,10.636381 -1.59716,2.032784 -3.15325,4.110818 -4.68215,6.208924 z m 4.751,3.677856 c 4.71116,-5.704577 9.57112,-11.371802 15.06409,-16.375765 3.60751,-3.282971 7.50781,-6.175297 11.62165,-8.663778 0,0 0,0 0,-10e-7 3.4623,-2.098919 7.00759,-3.947195 10.28148,-6.090085 4.04976,-2.634931 7.7885,-5.822778 11.12656,-9.398468 3.60964,-3.301307 6.88938,-6.967907 9.29087,-11.233928 1.95585,-3.447199 3.35015,-7.379917 4.77068,-11.379542 0,-1e-6 0,-2e-6 0,-3e-6 1.68102,-4.753218 3.53631,-9.4562317 5.91207,-13.81685511 3.62502,-6.63821629 8.22605,-12.51173389 13.37732,-17.83818489 -4.48952,5.89484 -8.46061,12.2143392 -11.45543,19.0747556 -1.96032,4.4815042 -3.42028,9.2430214 -4.75197,14.0457144 0,10e-7 0,2e-6 0,4e-6 -1.12982,4.088386 -2.3057,8.240702 -4.20361,12.135761 -2.36401,4.812779 -5.71665,8.977292 -9.46717,12.664488 -4.0109,3.402129 -8.42835,6.380329 -13.06815,8.804254 -3.75271,1.94811 -7.484,3.501348 -11.01802,5.253666 0,10e-7 0,10e-7 0,10e-7 -4.15216,2.062149 -8.10108,4.539135 -11.78775,7.46801 -5.64265,4.479034 -10.76298,9.833242 -15.69262,15.349956 z m 4.42595,4.206814 c 5.245,-5.219397 10.63689,-10.383993 16.59518,-14.825628 3.91279,-2.913669 8.07927,-5.409728 12.41801,-7.484704 0,0 0,0 0,0 3.65202,-1.750889 7.36142,-3.245542 10.82855,-5.060534 4.28727,-2.229393 8.31777,-5.040122 11.98719,-8.27559 3.91314,-2.936013 7.53314,-6.267759 10.33801,-10.280647 2.28172,-3.241173 4.05239,-7.019481 5.85686,-10.860826 0,-10e-7 0,-2e-6 0,-3e-6 2.13734,-4.565808 4.44473,-9.063441 7.23659,-13.169877 4.25839,-6.2504626 9.41281,-11.6457556 15.05895,-16.4458251 -5.04516,5.42772653 -9.61745,11.3267981 -13.27022,17.8595911 -2.39009,4.267105 -4.30906,8.861833 -6.10272,13.511357 -1e-5,1e-6 -1e-5,2e-6 -1e-5,3e-6 -1.5231,3.958365 -3.09704,7.976913 -5.36404,11.669832 -2.81996,4.56118 -6.5604,8.381625 -10.65072,11.688275 -4.32187,2.997681 -9.00724,5.534196 -13.86094,7.497019 -3.92452,1.575223 -7.79008,2.75894 -11.47953,4.158607 0,0 0,0 -1e-5,1e-6 -4.33509,1.647802 -8.50932,3.726441 -12.46658,6.279985 -6.05644,3.90458 -11.67826,8.730566 -17.12457,13.738964 z m 4.02737,4.649112 c 5.72626,-4.687057 11.59426,-9.304818 17.95607,-13.148299 4.17749,-2.520875 8.56693,-4.601787 13.08647,-6.247315 0,0 0,0 1e-5,0 3.80462,-1.38939 7.64115,-2.518331 11.26778,-3.988946 4.48304,-1.803632 8.76724,-4.209826 12.73328,-7.073902 4.17956,-2.542385 8.10583,-5.50699 11.28643,-9.229488 2.58513,-3.005046 4.71342,-6.594849 6.8817,-10.243955 0,-1e-6 0,-2e-6 0,-3e-6 2.5698,-4.338035 5.3027,-8.591342 8.48004,-12.408077 4.84508,-5.808646 10.49906,-10.679079 16.58397,-14.9098694 -5.54823,4.9134524 -10.67199,10.3415944 -14.94134,16.4904374 -2.79282,4.01591 -5.14807,8.40409 -7.38355,12.85938 0,1e-6 0,2e-6 0,3e-6 -1.89927,3.793387 -3.85482,7.641966 -6.46926,11.098149 -1.03966,1.365373 -2.16704,2.646052 -3.3625,3.851031 -2.5404,2.560615 -5.38649,4.779824 -8.37351,6.746914 -3.12328,1.742666 -6.39341,3.258857 -9.74469,4.514918 -1.57705,0.591081 -3.17209,1.124911 -4.77866,1.599534 -4.05831,1.187494 -8.01953,1.992263 -11.82687,3.028947 0,1e-6 0,1e-6 0,1e-6 -4.47393,1.221282 -8.83019,2.886632 -13.01685,5.045109 -6.40721,3.29996 -12.47164,7.558247 -18.37852,12.015431 z m 3.55442,5.001646 c 6.15493,-4.107557 12.44321,-8.134279 19.14675,-11.343776 0.7647,-0.365634 1.53425,-0.717707 2.30842,-1.056052 3.68193,-1.609152 7.47168,-2.903147 11.31999,-3.89338 0,0 0,0 0,0 3.92113,-1.013002 7.84933,-1.762443 11.60204,-2.872455 4.63752,-1.357939 9.13589,-3.335277 13.36216,-5.799345 4.40743,-2.123101 8.60393,-4.691069 12.13222,-8.085681 2.86571,-2.738647 5.33368,-6.103742 7.84641,-9.52509 0,-10e-7 0,-2e-6 0,-3e-6 2.46172,-3.361297 5.02936,-6.653446 7.83799,-9.667557 0.59056,-0.633753 1.19193,-1.255027 1.80558,-1.861614 5.38508,-5.312767 11.48483,-9.611705 17.95238,-13.230318 -4.37628,3.174956 -8.56039,6.640852 -12.37769,10.504538 -1.41518,1.432384 -2.78086,2.918658 -4.09132,4.462268 -3.16894,3.727085 -5.93923,7.866469 -8.59802,12.082568 0,1e-6 0,2e-6 0,3e-6 -2.2597,3.590131 -4.58154,7.228499 -7.52049,10.412845 -3.64952,3.929169 -8.05885,6.95312 -12.7119,9.405409 -4.82042,2.104341 -9.90825,3.685721 -15.05004,4.671988 -4.15518,0.78584 -8.17656,1.199396 -12.06658,1.859986 0,0 -1e-5,10e-7 -1e-5,10e-7 -4.57139,0.779326 -9.06785,2.013938 -13.44321,3.756789 -1.81093,0.720491 -3.60332,1.515273 -5.37977,2.366442 -4.79178,2.295938 -9.47056,4.99418 -14.07491,7.812434 z m 3.04157,5.314965 c 6.52531,-3.489786 13.17611,-6.884549 20.1616,-9.423888 4.58645,-1.664567 9.29579,-2.85621 14.0487,-3.595195 0,0 0,0 0,0 4.00188,-0.626171 7.98477,-0.990548 11.82758,-1.731343 4.74751,-0.90173 9.4161,-2.433945 13.86113,-4.476821 4.59229,-1.68597 9.01766,-3.835248 12.85859,-6.87154 3.11784,-2.447707 5.90099,-5.556975 8.73486,-8.716849 0,-10e-7 0,-10e-7 0,-2e-6 3.3612,-3.757957 6.86591,-7.401596 10.72199,-10.531125 5.87787,-4.760948 12.36761,-8.445031 19.15646,-11.417752 -6.39437,3.746624 -12.47184,8.080627 -17.85097,13.286312 -3.51754,3.399061 -6.67812,7.24756 -9.73418,11.184671 0,10e-7 0,2e-6 0,3e-6 -2.59801,3.352984 -5.26182,6.749013 -8.49548,9.63357 -4.01305,3.557017 -8.69425,6.139444 -13.56268,8.129115 -5.00126,1.627169 -10.21793,2.708196 -15.43105,3.191735 -4.21173,0.37963 -8.25461,0.40147 -12.19121,0.680666 0,0 0,0 -1e-5,0 -4.62641,0.331115 -9.22303,1.120929 -13.74849,2.427869 -6.92504,1.996846 -13.69893,5.001015 -20.35684,8.230574 z m 2.52767,5.609635 c 6.83221,-2.840969 13.78055,-5.575155 20.97912,-7.426074 4.7261,-1.212584 9.52861,-1.943035 14.33022,-2.219034 0,0 0,0 0,0 4.04328,-0.236321 8.04198,-0.213909 11.93794,-0.578665 4.81186,-0.437237 9.60667,-1.508125 14.22864,-3.109098 4.73383,-1.231489 9.34664,-2.940097 13.4636,-5.589588 3.34026,-2.133795 6.41137,-4.959423 9.53788,-7.830506 0,-10e-7 0,-2e-6 0,-3e-6 3.70928,-3.415385 7.55044,-6.702829 11.69157,-9.444158 6.31147,-4.16925 13.12753,-7.206997 20.17194,-9.507831 -6.72712,3.109366 -13.19602,6.834006 -19.05406,11.494924 -3.83023,3.042845 -7.34854,6.568255 -10.77143,10.192226 0,10e-7 0,10e-7 0,2e-6 -2.91045,3.086755 -5.89066,6.209981 -9.3889,8.76723 -4.33918,3.150909 -9.24941,5.264336 -14.28819,6.769246 -5.13559,1.131218 -10.43205,1.698294 -15.66625,1.673885 -4.22768,-0.03068 -8.25232,-0.399276 -12.19657,-0.501359 0,0 0,0 0,0 -4.6357,-0.116994 -9.28676,0.225239 -13.91736,1.088301 -7.08563,1.317625 -14.11883,3.651279 -21.05815,6.220502 z m 1.96702,5.79899 c 7.07582,-2.16083 14.25606,-4.20683 21.59857,-5.35139 4.82034,-0.74886 9.66933,-1.01152 14.47289,-0.821 0,0 0,0 10e-6,0 4.04529,0.15654 8.02095,0.56747 11.93312,0.58558 4.83057,0.0355 9.7076,-0.55782 14.46468,-1.69618 4.83205,-0.75966 9.59088,-2.005618 13.94725,-4.239826 3.53296,-1.796912 6.86482,-4.311086 10.25547,-6.866063 0,-10e-7 0,-10e-7 0,-2e-6 4.02354,-3.040332 8.1651,-5.941195 12.55225,-8.268325 6.68559,-3.537996 13.76363,-5.898916 20.99803,-7.50159 -6.99657,2.440781 -13.79544,5.520749 -20.07745,9.593729 -4.10699,2.658439 -7.95046,5.828556 -11.70975,9.105233 -1e-5,10e-7 -1e-5,2e-6 -1e-5,2e-6 -3.19699,2.791443 -6.46808,5.611405 -10.20075,7.813822 -3.60717,2.11294 -7.50161,3.56022 -11.48655,4.56958 0,0 0,0 0,0 -1.12768,0.28561 -2.26289,0.53608 -3.40188,0.75622 -1.15207,0.13599 -2.3094,0.24427 -3.46939,0.3244 0,0 0,0 0,0 -4.09914,0.28324 -8.22924,0.21305 -12.28624,-0.20596 -4.20303,-0.44508 -8.16969,-1.20284 -12.08266,-1.68609 0,0 0,0 0,0 -4.59923,-0.565 -9.25902,-0.67313 -13.94979,-0.26191 -7.17741,0.62625 -14.40263,2.26715 -21.5578,4.14977 z m 1.35881,5.88192 c 7.25611,-1.44937 14.60262,-2.77957 22.01993,-3.19984 2.38368,-0.13384 4.76195,-0.15337 7.1277,-0.059 2.46845,0.0997 4.92328,0.32396 7.35408,0.66336 0,0 0,0 0,0 4.01071,0.55607 7.92683,1.36097 11.81846,1.76797 4.80391,0.51568 9.71591,0.40867 14.56262,-0.25252 4.88375,-0.27692 9.74274,-1.04502 14.29999,-2.8351 3.69439,-1.4368 7.26039,-3.60674 10.88882,-5.81414 0,0 0,0 0,0 2.1983,-1.3414 4.4242,-2.64254 6.6874,-3.84798 2.16889,-1.157348 4.37221,-2.226024 6.62126,-3.149764 7.00022,-2.867186 14.27589,-4.520787 21.63473,-5.399027 -7.01262,1.69492 -13.89787,4.013378 -20.39367,7.312314 -10e-6,0 -10e-6,10e-7 -10e-6,10e-7 -0.17623,0.08932 -0.3522,0.179335 -0.52789,0.270056 -4.35136,2.24281 -8.49183,5.01866 -12.55924,7.90467 0,0 0,0 0,0 -3.45951,2.45918 -6.99539,4.93655 -10.92821,6.75613 -4.8741,2.23631 -10.10446,3.34274 -15.34121,3.82788 -5.25822,0.0997 -10.5633,-0.38617 -15.6906,-1.43938 -4.13917,-0.86143 -8.01249,-2.01324 -11.85935,-2.88393 0,0 0,0 0,0 -4.52183,-1.02041 -9.14908,-1.58814 -13.85861,-1.63974 -0.19019,-0.002 -0.38049,-0.004 -0.57089,-0.004 0,0 0,0 0,0 -7.0182,-0.0228 -14.17268,0.88349 -21.28531,2.02236 z m 0.76999,5.97755 c 7.3632,-0.7273 14.80578,-1.32214 22.2301,-0.99981 4.87356,0.21411 9.67957,0.91187 14.3525,2.04617 0,0 0,0 0,0 3.93606,0.95142 7.75437,2.13873 11.58763,2.92536 4.73057,0.98426 9.62997,1.35656 14.51834,1.17138 4.88775,0.2009 9.79876,-0.09 14.50909,-1.42462 3.81709,-1.06771 7.57795,-2.87529 11.40473,-4.71146 0,0 0,0 0,0 4.54273,-2.18717 9.1739,-4.21542 13.93304,-5.63407 7.25082,-2.15373 14.65513,-3.07744 22.06407,-3.22625 -7.34019,1.01754 -14.61198,2.70109 -21.57223,5.4565 -4.54955,1.79714 -8.94136,4.14562 -13.27095,6.61424 0,0 0,0 0,1e-5 -3.68295,2.10414 -7.44346,4.22161 -11.53493,5.6481 -5.06888,1.74926 -10.38237,2.3423 -15.64189,2.31627 -5.24344,-0.41179 -10.4767,-1.41086 -15.47731,-2.96039 -4.03581,-1.26207 -7.77825,-2.78962 -11.52101,-4.03736 0,0 0,0 0,0 -4.39975,-1.46361 -8.94761,-2.49021 -13.62782,-3.0114 -7.16066,-0.80039 -14.56742,-0.61174 -21.95336,-0.17267 z m 0.17903,6.11865 c 7.39967,-0.008 14.86512,0.12636 22.22318,1.17326 4.82981,0.68973 9.54542,1.85458 14.08654,3.43935 0,0 0,0 0,0 3.82542,1.33086 7.51098,2.88379 11.25023,4.03863 4.61324,1.43861 9.45376,2.28371 14.33732,2.57302 4.84553,0.67354 9.76183,0.85969 14.57969,-0.0118 3.90287,-0.69244 7.82159,-2.12607 11.80881,-3.58044 1e-5,0 1e-5,0 1e-5,0 4.73391,-1.73391 9.54057,-3.29939 14.41537,-4.24591 7.42628,-1.43448 14.88579,-1.63091 22.27465,-1.05895 -7.4048,0.29648 -14.80628,1.26033 -22.00173,3.32191 -4.70289,1.34365 -9.30229,3.25182 -13.85125,5.28743 0,0 0,0 0,0 -3.86996,1.73577 -7.81832,3.47861 -12.029,4.50206 -5.21483,1.25 -10.56087,1.32574 -15.7932,0.79031 -5.17895,-0.91782 -10.29093,-2.41895 -15.11827,-4.44571 -3.89487,-1.64717 -7.47215,-3.53062 -11.07667,-5.13696 0,0 0,0 0,0 -4.23756,-1.88517 -8.66458,-3.35155 -13.27222,-4.32814 -7.04935,-1.49715 -14.43946,-2.03433 -21.83346,-2.31807 z m -0.41497,6.14036 c 7.3658,0.70843 14.78349,1.56584 22.00612,3.32049 4.74067,1.15427 9.32178,2.76999 13.68837,4.7863 0,0 0,0 0,0 3.67879,1.69442 7.19665,3.59616 10.80624,5.1078 4.45195,1.87872 9.18732,3.19013 14.01958,3.95241 4.7571,1.14098 9.63197,1.80394 14.51177,1.40338 3.95173,-0.311 7.99133,-1.35908 12.10109,-2.4211 10e-6,0 10e-6,0 10e-6,0 4.8801,-1.26806 9.81626,-2.36106 14.7602,-2.83104 7.53089,-0.70852 14.97473,-0.18121 22.27357,1.1037 -7.39908,-0.42225 -14.85964,-0.18015 -22.2217,1.17558 -4.81142,0.88233 -9.57463,2.33727 -14.30014,3.9242 0,0 0,0 0,0 -4.02056,1.35406 -8.11997,2.70757 -12.41043,3.318 -2.4416,0.33948 -4.88818,0.42747 -7.31832,0.32339 -2.8569,-0.12237 -5.69122,-0.5098 -8.47683,-1.07339 -2.73676,-0.76642 -5.43889,-1.69932 -8.07025,-2.78817 -2.23828,-0.92621 -4.42542,-1.965 -6.54323,-3.10717 -3.71634,-2.01673 -7.09417,-4.23624 -10.52633,-6.18273 0,0 0,0 0,0 -4.03524,-2.28508 -8.29997,-4.17214 -12.79182,-5.58994 -6.87189,-2.17215 -14.17578,-3.42298 -21.5079,-4.42171 z m -1.00058,6.04621 c 7.26159,1.42281 14.56087,2.99632 21.57891,5.44187 1.41699,0.49459 2.81482,1.03014 4.1919,1.60609 3.09956,1.29634 6.09348,2.80009 8.96629,4.48328 1e-5,0 1e-5,0 1e-5,0 3.49611,2.04385 6.81122,4.28008 10.25583,6.13719 4.24704,2.30475 8.83174,4.07243 13.56649,5.30299 4.62296,1.60012 9.40981,2.73606 14.30531,2.81421 3.96314,0.0766 8.08571,-0.57189 12.2798,-1.22921 0,0 0,0 0,0 3.44863,-0.54522 6.91583,-1.00275 10.37145,-1.23215 1.53529,-0.10195 3.06827,-0.15833 4.59614,-0.15493 7.56463,0.0241 14.92193,1.27163 22.06081,3.26166 -6.11207,-0.95037 -12.31339,-1.44949 -18.53315,-1.21089 0,0 0,0 -10e-6,0 -1.23236,0.0472 -2.46554,0.12282 -3.69919,0.2281 -4.87531,0.41239 -9.75833,1.39815 -14.61616,2.51629 0,0 0,0 0,0 -4.13351,0.95518 -8.34498,1.90031 -12.67418,2.08809 -5.35823,0.21538 -10.61741,-0.74731 -15.64659,-2.28727 -4.90266,-1.90475 -9.62639,-4.36898 -13.96906,-7.293 -3.50151,-2.37088 -6.64584,-4.91123 -9.87136,-7.18333 0,0 0,0 0,0 -3.79263,-2.66792 -7.85333,-4.9595 -12.18635,-6.8051 -1.09611,-0.4674 -2.20691,-0.9102 -3.32987,-1.33176 0,0 0,0 0,0 -5.66755,-2.12768 -11.63737,-3.72833 -17.64702,-5.15213 z m -1.58367,5.90086 c 7.08853,2.1236 14.19921,4.4026 20.94435,7.5242 4.42676,2.05145 8.60733,4.52499 12.49967,7.35061 0,0 0,0 0,0 3.28009,2.37632 6.36214,4.92514 9.61024,7.10821 4.0033,2.70658 8.39516,4.91024 12.98834,6.59406 4.44608,2.0408 9.10032,3.63528 13.96502,4.18863 3.93692,0.46123 8.10261,0.21727 12.33996,-0.027 0,0 0,0 0,0 5.03296,-0.29689 10.08718,-0.41177 15.02834,0.0857 7.52523,0.76498 14.72555,2.72522 21.63661,5.40136 -7.17673,-1.84873 -14.54267,-3.05714 -22.0275,-3.15518 -4.89094,-0.0677 -9.84536,0.43488 -14.78805,1.07376 0,0 0,0 0,0 -4.20608,0.54737 -8.48913,1.07874 -12.8161,0.84576 -5.35381,-0.3053 -10.49497,-1.77267 -15.35122,-3.79246 -4.69499,-2.3706 -9.15783,-5.28054 -13.1967,-8.61207 -3.25527,-2.69939 -6.13838,-5.53368 -9.12751,-8.11029 0,0 0,0 0,0 -3.51503,-3.02599 -7.33229,-5.7053 -11.46366,-7.9675 -6.31981,-3.4639 -13.24254,-6.1065 -20.24179,-8.50778 z m -2.16328,5.75945 c 6.84943,2.80003 13.70566,5.75788 20.11664,9.51897 4.20719,2.47112 8.12864,5.3383 11.7293,8.52728 0,0 0,0 0,0 3.03475,2.68254 5.8557,5.51718 8.87692,8.00434 3.72214,3.08128 7.87914,5.70043 12.28701,7.82171 4.22686,2.46228 8.70412,4.50064 13.49229,5.52249 3.87368,0.84032 8.04371,1.00048 12.28503,1.16759 0,0 0,0 0,0 5.03831,0.19177 10.07999,0.56735 14.94969,1.54165 7.41568,1.49114 14.39205,4.14042 21.0113,7.4732 -6.96375,-2.5358 -14.17779,-4.45327 -21.61813,-5.27624 -4.86153,-0.54139 -9.84174,-0.52075 -14.82372,-0.36278 0,0 0,0 0,0 -4.23988,0.13811 -8.55499,0.25312 -12.83915,-0.39792 -5.29918,-0.82249 -10.273,-2.78265 -14.90934,-5.26514 -4.44175,-2.81593 -8.60009,-6.14568 -12.29676,-9.85215 -2.97809,-3.00152 -5.5735,-6.10027 -8.29948,-8.95331 0,0 0,0 0,0 -3.20597,-3.35107 -6.74627,-6.38714 -10.63926,-9.03909 -5.95483,-4.06008 -12.58876,-7.36206 -19.32234,-10.4306 z m -2.70078,5.51264 c 6.54414,3.45252 13.08082,7.06104 19.09706,11.42422 3.94785,2.86623 7.57326,6.09801 10.84746,9.61914 0,0 0,0 0,0 2.7601,2.96253 5.2919,6.05621 8.05587,8.82558 3.40355,3.42887 7.28371,6.44302 11.46253,8.98594 3.96528,2.86455 8.22119,5.33215 12.88709,6.8158 3.77342,1.21386 7.90903,1.77774 12.115,2.35456 1e-5,0 1e-5,0 1e-5,0 4.99699,0.67849 9.97941,1.53955 14.73203,2.98052 7.23666,2.20179 13.92277,5.51484 20.18611,9.47519 -6.6846,-3.19892 -13.67895,-5.80557 -21.00587,-7.3437 -4.78705,-1.00867 -9.74742,-1.46876 -14.72315,-1.79334 0,0 0,0 0,0 -4.23492,-0.27258 -8.54256,-0.57657 -12.74332,-1.64295 -1.31904,-0.3393 -2.61028,-0.75051 -3.874,-1.22271 -3.7138,-1.3871 -7.18758,-3.29817 -10.44699,-5.48272 -3.09037,-2.41777 -5.9976,-5.10412 -8.65093,-7.99402 -0.90277,-0.98371 -1.77622,-1.99096 -2.61829,-3.01912 -2.66997,-3.27725 -4.95119,-6.61099 -7.38727,-9.71237 0,0 0,0 0,0 -2.86544,-3.64317 -6.09526,-7.00505 -9.71314,-10.01988 -5.53366,-4.61513 -11.81639,-8.54339 -18.2202,-12.25014 z m -3.19449,5.15822 c 6.17265,4.08106 12.32465,8.31206 17.88558,13.23997 0.33727,0.29919 0.67155,0.60112 1.00278,0.90578 3.25527,2.99056 6.21321,6.2514 8.85725,9.72222 0,1e-5 0,1e-5 0,1e-5 2.45645,3.21816 4.66976,6.54687 7.14529,9.57657 3.04652,3.74933 6.60757,7.13371 10.51282,10.07869 3.66084,3.24379 7.65003,6.12171 12.14566,8.06093 3.63434,1.58223 7.69454,2.55298 11.82592,3.54034 0,0 0,0 1e-5,0 4.45529,1.05846 8.88558,2.26318 13.10103,3.89306 0.42903,0.16608 0.85579,0.33664 1.28006,0.51203 6.98817,2.89691 13.31773,6.84846 19.16105,11.40733 -4.21584,-2.55247 -8.59277,-4.86397 -13.15506,-6.77785 -2.29968,-0.96359 -4.64595,-1.82771 -7.04048,-2.57967 -4.67019,-1.47045 -9.56616,-2.41402 -14.48728,-3.229 0,0 0,0 0,0 -4.18881,-0.68997 -8.44417,-1.42166 -12.51723,-2.90062 -5.03468,-1.84624 -9.52535,-4.74633 -13.58278,-8.09174 -3.80108,-3.63404 -7.22287,-7.71649 -10.11974,-12.07532 -2.33072,-3.52674 -4.26896,-7.07155 -6.38722,-10.39766 0,-1e-5 0,-1e-5 0,-1e-5 -2.49208,-3.90755 -5.3788,-7.56739 -8.68747,-10.91888 -1.69505,-1.71837 -3.48412,-3.36644 -5.33788,-4.96194 -3.67696,-3.16849 -7.6055,-6.134 -11.60231,-9.00424 z m -3.64317,4.77324 c 5.73684,4.67174 11.43766,9.49229 16.47973,14.9503 3.30799,3.58457 6.22741,7.46458 8.7443,11.56099 0,0 0,0 0,0 2.12283,3.4476 3.99545,6.97999 6.16073,10.23905 2.66262,4.03153 5.87589,7.74838 9.47428,11.06189 3.32586,3.58696 7.01474,6.84155 11.29712,9.21371 3.46052,1.93214 7.40279,3.29934 11.41225,4.69218 0,0 0,0 0,0 4.76485,1.64812 9.48081,3.4707 13.85793,5.81612 6.66339,3.57883 12.5687,8.13902 17.93047,13.25348 -5.92584,-4.44858 -12.27294,-8.37562 -19.15422,-11.32274 -4.49516,-1.92916 -9.26689,-3.35607 -14.07879,-4.65459 0,0 0,0 0,0 -4.09619,-1.10159 -8.25654,-2.24893 -12.16448,-4.12014 -4.82882,-2.33101 -9.01604,-5.65517 -12.72868,-9.38045 -3.42935,-3.98759 -6.43755,-8.38462 -8.89313,-13.00764 -1.97371,-3.73924 -3.55251,-7.45965 -5.32918,-10.98136 0,0 0,0 0,-1e-5 -2.09076,-4.13767 -4.59513,-8.06915 -7.54959,-11.7353 -4.5182,-5.61126 -9.90798,-10.6942 -15.45874,-15.58549 z m -4.17242,4.45112 c 5.25497,5.20926 10.45627,10.56566 14.93852,16.49333 2.94034,3.8927 5.46481,8.04191 7.56931,12.36631 0,0 0,0 0,0 1.77574,3.63992 3.2956,7.33902 5.13413,10.7937 2.2585,4.27197 5.09658,8.28324 8.35693,11.93054 2.96256,3.89307 6.31885,7.49031 10.35071,10.26778 3.2566,2.2596 7.04686,4.00448 10.90041,5.78267 0,0 0,0 0,0 4.58028,2.10611 9.09359,4.38265 13.21901,7.14632 6.27943,4.21549 11.70979,9.33283 16.54818,14.94609 -5.46203,-5.0079 -11.39224,-9.53963 -17.94985,-13.14759 -4.28335,-2.36083 -8.89107,-4.24834 -13.55268,-6.01026 0,0 0,0 0,0 -3.96863,-1.49607 -7.99774,-3.04263 -11.70597,-5.28444 -4.58022,-2.78885 -8.42604,-6.50319 -11.76048,-10.5709 -3.02705,-4.30136 -5.5954,-8.96936 -7.59117,-13.80958 -1.60187,-3.91371 -2.81181,-7.77111 -4.23656,-11.45088 0,0 0,0 0,-1e-5 -1.67726,-4.32369 -3.78433,-8.48353 -6.36485,-12.42315 -3.94586,-6.02947 -8.81019,-11.61803 -13.85564,-17.02993 z m -4.62101,4.05776 c 4.72593,5.69421 9.3835,11.53063 13.27011,17.86615 2.54919,4.16025 4.65984,8.53546 6.33601,13.04375 0,1e-5 0,1e-5 0,1e-5 1.41519,3.79513 2.57018,7.62394 4.06549,11.24048 1.83416,4.47067 4.26962,8.73832 7.16077,12.68469 2.57092,4.16208 5.56233,8.06797 9.30642,11.22312 3.02259,2.56458 6.62673,4.66839 10.29043,6.81181 0,0 0,0 0,0 4.35533,2.54024 8.62704,5.24416 12.46526,8.39545 5.8414,4.80545 10.75017,10.42614 15.0223,16.4821 -4.95107,-5.51465 -10.41389,-10.60135 -16.59151,-14.8288 -4.03473,-2.76545 -8.43869,-5.09084 -12.90895,-7.29598 0,0 0,0 0,0 -3.8061,-1.87344 -7.66778,-3.80276 -11.1417,-6.39353 -2.74992,-2.06444 -5.16185,-4.48159 -7.30894,-7.09992 -1.2016,-1.46532 -2.32043,-2.99414 -3.36922,-4.56317 -0.93085,-1.64175 -1.79936,-3.32482 -2.59963,-5.03959 -1.42998,-3.06408 -2.6413,-6.22899 -3.61426,-9.44154 -1.21517,-4.05016 -2.04683,-8.00593 -3.10932,-11.80623 0,0 0,0 0,0 -1.2516,-4.46563 -2.94643,-8.81053 -5.13326,-12.98244 -3.34336,-6.38466 -7.64275,-12.41996 -12.14,-18.29636 z m -4.97985,3.59002 c 4.14975,6.12657 8.21937,12.38719 11.47451,19.06878 0.91362,1.87777 1.74488,3.78582 2.4923,5.71966 0,0 0,0 0,0 0.99883,2.58432 1.84704,5.21518 2.55089,7.87435 0,0 0,0 0,0 1.04004,3.91399 1.81643,7.83688 2.95208,11.5819 1.38963,4.62809 3.39757,9.11286 5.89039,13.32222 2.1531,4.39285 4.74961,8.57174 8.16828,12.07673 2.75819,2.84691 6.14019,5.29175 9.57887,7.78088 0,0 0,0 0,0 2.33862,1.68808 4.64356,3.42802 6.84809,5.2629 0,0 0,0 0,0 1.64964,1.37304 3.24268,2.79966 4.74735,4.30125 5.34932,5.34872 9.68986,11.41896 13.35282,17.86149 -4.07303,-5.53415 -8.61865,-10.74749 -13.83722,-15.30446 0,0 0,0 0,0 -0.40988,-0.35791 -0.82383,-0.7119 -1.2419,-1.06187 -3.74905,-3.14313 -7.90764,-5.88481 -12.14204,-8.51459 0,0 0,0 0,-10e-6 -3.60569,-2.235 -7.25992,-4.53189 -10.46426,-7.44904 -3.95399,-3.62262 -7.00786,-8.01128 -9.49175,-12.64755 -2.13709,-4.80598 -3.75304,-9.88294 -4.77436,-15.01784 -0.81418,-4.14968 -1.25526,-8.16806 -1.94262,-12.05335 0,0 0,0 0,0 -0.81078,-4.56581 -2.0765,-9.05353 -3.84965,-13.41667 -0.19737,-0.48623 -0.40013,-0.97109 -0.60791,-1.45462 0,0 0,0 0,0 -2.64549,-6.15634 -6.08218,-12.10306 -9.70387,-17.93016 z m -5.29161,3.07671 c 3.5341,6.50142 6.97415,13.12889 9.5611,20.09683 1.69582,4.57495 2.91957,9.276 3.69089,14.02374 0,0 0,0 0,0 0.65339,3.99749 1.04482,7.97781 1.81172,11.8155 0.93398,4.74129 2.49791,9.39938 4.57098,13.83044 1.71717,4.58075 3.8965,8.99143 6.95884,12.81163 2.46884,3.10114 5.59696,5.86308 8.77606,8.67536 0,0 0,0 0,0 3.78077,3.33553 7.44825,6.81529 10.60403,10.6499 4.80096,5.84524 8.52923,12.30967 11.54806,19.07815 -3.79013,-6.36866 -8.16555,-12.41637 -13.40782,-17.75985 -3.42299,-3.49427 -7.29295,-6.62854 -11.25074,-9.65773 0,0 0,0 0,0 -3.37057,-2.57514 -6.78459,-5.2158 -9.69105,-8.42979 -3.58421,-3.98879 -6.19847,-8.65234 -8.22127,-13.50715 -1.66121,-4.99011 -2.77773,-10.19935 -3.29668,-15.4091 -0.40823,-4.20908 -0.45749,-8.25175 -0.76343,-12.18634 0,0 0,0 0,0 -0.36254,-4.62404 -1.18364,-9.21512 -2.52142,-13.73151 -2.04403,-6.91119 -5.09439,-13.66436 -8.36927,-20.30008 z m -5.59212,2.56505 c 2.88745,6.81278 5.66883,13.74241 7.56858,20.92828 1.24465,4.71779 2.00764,9.51528 2.3162,14.315 0,0 0,0 0,0 0.26374,4.04165 0.26849,8.04051 0.6598,11.93394 0.47005,4.80885 1.57377,9.59625 3.20636,14.2072 1.26389,4.72533 3.00407,9.32637 5.68159,13.42518 2.15653,3.32565 5.00294,6.37747 7.89516,9.48441 0,0 0,0 0,0 3.44045,3.68599 6.75386,7.50474 9.52324,11.62716 4.21202,6.28301 7.29605,13.0783 9.64481,20.10695 -3.15504,-6.70587 -6.92354,-13.14933 -11.62406,-18.9756 -3.06873,-3.80948 -6.61784,-7.30378 -10.26488,-10.70196 0,0 0,0 0,0 -3.10637,-2.88939 -6.2497,-5.84828 -8.83078,-9.32897 -3.18046,-4.31756 -5.32762,-9.21316 -6.86719,-14.24148 -1.16655,-5.12772 -1.77005,-10.42019 -1.78139,-15.65455 0.002,-4.22788 0.34309,-8.25509 0.41846,-12.20006 0,0 0,0 0,0 0.0856,-4.63653 -0.2881,-9.28525 -1.18254,-13.90994 -1.36563,-7.07661 -3.747,-14.09382 -6.36336,-21.01556 z m -5.78894,2.00768 c 2.20947,7.06083 4.30457,14.22698 5.49919,21.56165 0.78172,4.81522 1.07736,9.66248 0.91963,14.46742 0,0 0,0 0,0 -0.12893,4.04643 -0.5126,8.02497 -0.50369,11.93721 -0.002,4.83076 0.62513,9.70348 1.79654,14.45248 0.79325,4.8266 2.0723,9.57657 4.33651,13.91738 1.82125,3.52045 4.35814,6.83494 6.93615,10.20803 0,0 0,0 0,10e-6 3.06767,4.00263 5.9966,8.12432 8.35359,12.49552 3.58351,6.66132 5.99282,13.72311 7.64523,20.94636 -2.48862,-6.97977 -5.6149,-13.75753 -9.73047,-20.01164 -2.68629,-4.08877 -5.88235,-7.91053 -9.18448,-11.64727 0,0 0,0 0,0 -2.81308,-3.17778 -5.65528,-6.42933 -7.88343,-10.14659 -2.74276,-4.60894 -4.39535,-9.69374 -5.42954,-14.85056 -0.65312,-5.21879 -0.73,-10.54545 -0.2285,-15.75417 0.41595,-4.20608 1.1465,-8.1781 1.60306,-12.09452 0,0 0,0 0,0 0.53363,-4.60327 0.61013,-9.26392 0.167,-13.95194 -0.67508,-7.17321 -2.36523,-14.38718 -4.29679,-21.52937 z m -5.87933,1.40272 c 1.50017,7.24559 2.88137,14.58262 3.35291,21.99695 0.20647,3.27267 0.19614,6.53699 -0.0264,9.77339 0,0 0,0 0,0 -0.10929,1.57799 -0.2688,3.14922 -0.47565,4.71084 0,0 0,0 0,0 -0.52785,4.01458 -1.30536,7.93624 -1.68533,11.83062 -0.48231,4.8074 -0.34142,9.71855 0.35323,14.56059 0.31064,4.88174 1.11225,9.73533 2.93394,14.28013 1.46244,3.68439 3.65729,7.23533 5.89023,10.84843 0,0 0,0 0,1e-5 0.87085,1.4049 1.72504,2.82136 2.54834,4.25187 0,0 0,0 0,0 1.6915,2.93372 3.25327,5.92602 4.54331,9.00618 2.91544,6.98015 4.61953,14.2441 5.54932,21.59639 -1.79088,-7.19037 -4.23961,-14.24097 -7.72708,-20.86798 -0.3728,-0.70969 -0.7602,-1.4135 -1.16013,-2.11213 -2.03881,-3.56918 -4.39737,-7.00606 -6.83448,-10.39041 0,-10e-6 0,-10e-6 0,-10e-6 -2.48349,-3.44246 -4.98551,-6.9612 -6.83228,-10.8814 -2.27001,-4.8586 -3.41235,-10.08122 -3.93345,-15.3145 -0.1358,-5.2574 0.31357,-10.56568 1.33125,-15.70012 0.83275,-4.14502 1.95751,-8.02623 2.80116,-11.8791 0,0 0,-10e-6 0,-10e-6 0.82667,-3.78695 1.3384,-7.64593 1.4922,-11.56186 0.0296,-0.76656 0.0458,-1.53536 0.0484,-2.30636 0.0276,-7.201 -0.94905,-14.54443 -2.16954,-21.84152 z m -5.96659,0.8097 c 0.77788,7.358 1.42414,14.79632 1.15325,22.22271 -0.18034,4.87492 -0.84475,9.68563 -1.94674,14.36623 0,0 0,0 0,0 -0.92419,3.94249 -2.0852,7.76882 -2.84553,11.60736 -0.9518,4.73716 -1.29061,9.63897 -1.07201,14.52593 -0.16748,4.88899 0.15694,9.79788 1.52385,14.49895 1.09385,3.80967 2.92726,7.55805 4.78982,11.37214 0,0 0,0 0,0 2.2185,4.52761 4.27884,9.14474 5.73042,13.89401 2.20391,7.23585 3.17878,14.63362 3.37851,22.04135 -1.06822,-7.33301 -2.80215,-14.59306 -5.60575,-21.53422 -1.82864,-4.53709 -4.20752,-8.91268 -6.70595,-13.22525 0,0 0,0 0,0 -2.12951,-3.66844 -4.27274,-7.41438 -5.72719,-11.49598 -1.7839,-5.0568 -2.41318,-10.36609 -2.42304,-15.62565 0.376,-5.24611 1.33935,-10.48604 2.85461,-15.49709 1.23441,-4.04432 2.73622,-7.79709 3.95809,-11.54829 0,0 0,0 0,0 1.43322,-4.40965 2.42827,-8.96444 2.917,-13.64813 0.75073,-7.166 0.51072,-14.57133 0.0207,-21.95407 z m -6.1135,0.22109 c 0.0588,7.39941 -0.0248,14.86558 -1.02132,22.23058 -0.65666,4.83438 -1.7892,9.5578 -3.34291,14.10959 0,0 0,0 0,0 -1.30469,3.83439 -2.83245,7.53042 -3.96177,11.27745 -1.40712,4.62294 -2.2192,9.46911 -2.4752,14.35452 -0.64048,4.85001 -0.7931,9.76747 0.11121,14.57925 0.71903,3.89805 2.17935,7.80689 3.66092,11.78407 0,1e-5 0,1e-5 0,1e-5 1.7662,4.72194 3.36453,9.51777 4.34439,14.38597 1.48526,7.41628 1.7327,14.87423 1.21118,22.2668 -0.34711,-7.40257 -1.36161,-14.79725 -3.47237,-21.97842 -1.37579,-4.69358 -3.31536,-9.27982 -5.38194,-13.81477 0,0 0,0 0,0 -1.76213,-3.85801 -3.53181,-7.79437 -4.58393,-11.99796 -1.28551,-5.20617 -1.39773,-10.55158 -0.89803,-15.78744 0.88244,-5.1851 2.34865,-10.30722 4.34247,-15.14826 1.62059,-3.90601 3.47965,-7.49603 5.06135,-11.11139 0,0 1e-5,0 1e-5,0 1.85621,-4.25028 3.29229,-8.68717 4.23733,-13.30134 1.44886,-7.05936 1.93542,-14.45293 2.16861,-21.84866 z m -6.14248,-0.37335 c -0.65814,7.37047 -1.46496,14.79383 -3.17036,22.02824 -1.12196,4.74842 -2.70648,9.34043 -4.69305,13.72068 0,0 0,0 0,0 -1.66935,3.69027 -3.5471,7.22104 -5.03405,10.8409 -1.84828,4.4647 -3.12718,9.20896 -3.85633,14.04633 -1.10836,4.76481 -1.737876,9.64411 -1.30398,14.52105 0.33799,3.94951 1.41356,7.98183 2.50353,12.08423 0,0 0,0 0,0 1.30124,4.87131 2.4278,9.79988 2.93144,14.74049 0.75981,7.52586 0.28326,14.97311 -0.9518,22.28056 0.3718,-7.40178 0.0789,-14.86051 -1.32693,-22.2131 -0.91505,-4.80527 -2.40231,-9.55841 -4.02133,-14.27293 0,0 -1e-6,0 -1e-6,-1e-5 -1.381356,-4.01117 -2.762734,-8.10119 -3.402487,-12.38735 -0.599755,-4.10743 -0.488328,-8.2314 0.0577,-12.2771 0,0 0,0 0,0 0.159432,-1.18128 0.356132,-2.35616 0.583831,-3.52279 0.312669,-1.14678 0.654403,-2.2878 1.024618,-3.42025 0,0 0,0 0,0 1.267933,-3.87846 2.871344,-7.65403 4.770244,-11.23337 1.99129,-3.73008 4.1878,-7.12303 6.11094,-10.56841 0,0 0,0 0,0 2.25763,-4.05076 4.1157,-8.32825 5.50291,-12.82966 2.12535,-6.88653 3.32639,-14.19875 4.2751,-21.53751 z m -6.05557,-0.9596 c -1.37283,7.27119 -2.89631,14.58109 -5.29388,21.61573 -0.7685,2.25104 -1.64058,4.45463 -2.61275,6.60456 -1.02186,2.25991 -2.15477,4.46032 -3.38583,6.59515 0,0 0,0 0,0 -2.019615,3.51013 -4.232952,6.84053 -6.06639,10.29777 -2.27556,4.26273 -4.011871,8.8594 -5.210028,13.60244 -1.568473,4.63379 -2.671685,9.42827 -2.716265,14.32421 -0.04942,3.96359 0.627418,8.08167 1.313704,12.27122 0,1e-5 10e-7,1e-5 10e-7,1e-5 0.421165,2.54968 0.793758,5.10989 1.062369,7.66876 0.2556,2.43435 0.41659,4.86751 0.427758,7.28892 0.02755,7.56459 -1.16954,14.93026 -3.110416,22.08264 1.058118,-7.12619 1.496279,-14.36763 0.885628,-21.6145 0,0 0,0 0,0 -0.01752,-0.20793 -0.03587,-0.41587 -0.05507,-0.62381 -0.446189,-4.87249 -1.46577,-9.74876 -2.617395,-14.5989 0,0 -10e-7,0 -10e-7,0 -0.983676,-4.12695 -1.957711,-8.3319 -2.175106,-12.65973 -0.25204,-5.35665 0.674765,-10.62227 2.180393,-15.66182 1.871265,-4.91553 4.303224,-9.65595 7.197442,-14.0185 2.34685,-3.51762 4.865503,-6.67928 7.115242,-9.92036 0,0 10e-7,0 10e-7,0 2.641632,-3.81089 4.904962,-7.88736 6.720442,-12.23309 0.0776,-0.18542 0.15439,-0.37124 0.23055,-0.55747 0,0 0,0 0,0 2.65438,-6.49048 4.49928,-13.45254 6.1096,-20.46323 z m -5.90941,-1.54249 c -2.07521,7.10284 -4.30552,14.22892 -7.380854,20.99524 -2.021088,4.44068 -4.46593,8.63804 -7.26487,12.54956 -10e-7,0 -10e-7,0 -10e-7,0 -2.353841,3.29621 -4.881586,6.39556 -7.042476,9.65845 -2.679245,4.02164 -4.852957,8.4284 -6.505465,13.03294 -2.010484,4.45988 -3.573243,9.12488 -4.093444,13.99324 -0.4344,3.93997 -0.16204,8.10389 0.111169,12.33949 0,1e-5 0,1e-5 0,1e-5 0.331257,5.03082 0.480734,10.08417 0.01711,15.02863 -0.713456,7.5303 -2.624402,14.74384 -5.253346,21.67298 1.799622,-7.18918 2.957554,-14.56324 3.004364,-22.04859 0.03423,-4.89131 -0.502227,-9.84221 -1.174817,-14.78043 0,0 0,0 0,0 -0.576047,-4.20225 -1.136577,-8.48158 -0.933056,-12.81003 0.268851,-5.35577 1.701174,-10.50681 3.687846,-15.37672 2.338568,-4.71105 5.218069,-9.19362 8.52203,-13.25508 2.677178,-3.27357 5.49177,-6.1759 8.047912,-9.1825 0,0 10e-7,0 2e-6,0 3.001918,-3.53556 5.655032,-7.37101 7.888884,-11.51773 3.420534,-6.34333 6.015644,-13.28397 8.369014,-20.29946 z m -5.77286,-2.12384 c -2.753322,6.86836 -5.664425,13.74458 -9.381801,20.18101 -2.442442,4.2239 -5.282904,8.16476 -8.447352,11.78704 -10e-7,0 -10e-7,0 -10e-7,0 -2.661876,3.05293 -5.477301,5.89312 -7.943826,8.93125 -3.055871,3.74307 -5.64657,7.9179 -7.737696,12.34017 -2.433362,4.2436 -4.441098,8.73471 -5.430296,13.52973 -0.813901,3.87932 -0.945689,8.05033 -1.083954,12.29266 0,1e-5 0,1e-5 0,1e-5 -0.157503,5.03948 -0.498789,10.08357 -1.439918,14.95978 -1.440645,7.42565 -4.042366,14.4199 -7.329992,21.06172 2.488331,-6.98086 4.356644,-14.20778 5.128995,-21.65352 0.508318,-4.86507 0.453843,-9.84498 0.26202,-14.82572 0,0 0,0 0,0 -0.166915,-4.2388 -0.311251,-8.55298 0.310551,-12.84146 0.786334,-5.30466 2.712384,-10.2918 5.163055,-14.94506 2.785425,-4.46095 6.086632,-8.64203 9.767853,-12.36393 2.981174,-2.99853 6.062277,-5.61499 8.896782,-8.36032 10e-7,0 2e-6,0 3e-6,0 3.329274,-3.22869 6.341265,-6.78955 8.966693,-10.70048 4.019517,-5.98231 7.276256,-12.63856 10.298884,-19.39288 z m -5.532572,-2.66407 c -3.40762,6.56765 -6.971443,13.12884 -11.293584,19.17473 -2.839296,3.96734 -6.046401,7.61471 -9.545216,10.91291 0,0 0,0 -1e-6,0 -2.943723,2.78029 -6.020098,5.33324 -8.770441,8.11619 -3.405437,3.42703 -6.392712,7.32788 -8.906722,11.52413 -2.837106,3.98492 -5.275249,8.25774 -6.726821,12.93369 -1.187925,3.78165 -1.723528,7.92096 -2.271664,12.13072 0,0 0,0 0,0 -0.644412,5.00144 -1.471555,9.98956 -2.880113,14.75189 -2.152434,7.25149 -5.419773,13.9601 -9.33714,20.25044 3.153211,-6.70632 5.712154,-13.71829 7.2004,-21.05545 0.976074,-4.79376 1.402439,-9.75706 1.693115,-14.73477 0,0 0,0 0,0 0.24372,-4.23657 0.518269,-8.54607 1.555716,-12.75401 0.550148,-2.20131 1.300118,-4.32666 2.200296,-6.37776 1.227505,-2.79766 2.733968,-5.45679 4.405767,-7.98909 1.85306,-2.40284 3.867242,-4.69797 6.013328,-6.85069 1.573752,-1.57818 3.218309,-3.0797 4.921538,-4.49436 3.258838,-2.69249 6.577027,-4.99655 9.661855,-7.4538 10e-7,0 2e-6,0 3e-6,0 3.623704,-2.8903 6.963661,-6.14299 9.95387,-9.78135 4.57747,-5.56503 8.462856,-11.87443 12.125814,-18.30342 z m -5.184614,-3.16072 c -4.038086,6.20072 -8.226558,12.38171 -13.11619,17.97642 -0.888529,1.0156 -1.801865,2.00448 -2.739308,2.96565 -2.450404,2.51577 -5.068682,4.84007 -7.820178,6.96678 -1e-6,0 -1e-6,0 -2e-6,0 -3.200916,2.47899 -6.514117,4.71549 -9.526582,7.21201 -3.728127,3.0725 -7.087841,6.65685 -10.005772,10.58238 -3.218419,3.68319 -6.068737,7.69216 -7.976747,12.20122 -1.557,3.64529 -2.499491,7.71231 -3.457993,11.85073 0,0 0,0 0,0 -0.818804,3.55695 -1.732197,7.09792 -2.877756,10.52982 -0.438378,1.31157 -0.911226,2.60696 -1.427446,3.88037 -2.848825,7.00784 -6.756625,13.36446 -11.274791,19.23915 3.075261,-5.15928 5.786719,-10.55632 7.864892,-16.22975 0.48563,-1.32758 0.937457,-2.67008 1.35337,-4.02776 1.437714,-4.68071 2.347009,-9.58354 3.127667,-14.51052 0,0 10e-7,0 10e-7,0 0.660764,-4.19376 1.3629,-8.45429 2.813653,-12.53755 1.811384,-5.04741 4.680489,-9.55794 7.997883,-13.63829 3.607786,-3.82601 7.666571,-7.27581 12.005228,-10.2028 3.510515,-2.35508 7.041712,-4.31795 10.352922,-6.45947 10e-7,0 2e-6,0 3e-6,0 3.890013,-2.5194 7.529513,-5.43188 10.857743,-8.76417 0.965383,-0.96578 1.90803,-1.96157 2.831249,-2.98191 3.949797,-4.35936 7.553787,-9.15727 11.018154,-14.05231 z m -4.797294,-3.6099 c -4.632116,5.76886 -9.413158,11.50292 -14.836107,16.5827 -3.561581,3.33277 -7.42123,6.27902 -11.500104,8.82415 0,0 -1e-6,0 -1e-6,0 -3.432808,2.1466 -6.952176,4.0435 -10.196266,6.2311 -4.01311,2.69025 -7.707836,5.92889 -10.996587,9.54989 -3.564067,3.35036 -6.79329,7.06144 -9.135969,11.36001 -1.908321,3.47371 -3.248342,7.42534 -4.61348,11.44439 0,0 -1e-6,0 -1e-6,0 -1.615192,4.7762 -3.405093,9.50478 -5.72018,13.89811 -3.532647,6.68811 -8.0519093,12.62485 -13.1293191,18.0217 4.4075266,-5.95648 8.2905331,-12.33072 11.1899711,-19.2324 1.898014,-4.50851 3.291901,-9.29013 4.557225,-14.11096 0,0 0,0 1e-6,0 1.073326,-4.10377 2.192043,-8.27195 4.036399,-12.19263 2.297828,-4.8447 5.593259,-9.05455 9.293032,-12.79256 3.964021,-3.45654 8.340344,-6.49473 12.946377,-8.98194 3.725573,-1.9993 7.434982,-3.60365 10.944284,-5.40457 0,0 10e-7,0 2e-6,0 4.123072,-2.11925 8.037061,-4.65079 11.682627,-7.6306 5.579787,-4.557 10.625276,-9.98193 15.478096,-15.56639 z m -4.477571,-4.13929 c -5.173163,5.29046 -10.493751,10.52834 -16.390472,15.05113 -3.872409,2.96696 -8.004151,5.51983 -12.31399,7.65388 0,0 -10e-7,0 -10e-7,0 -3.627632,1.80062 -7.31622,3.34573 -10.758236,5.20782 -4.256413,2.28764 -8.248195,5.15304 -11.873132,8.43823 -3.872723,2.98908 -7.446947,6.36986 -10.196783,10.4206 -2.237273,3.27196 -3.95618,7.07405 -5.707931,10.9397 -10e-7,0 -10e-7,0 -2e-6,0 -2.074679,4.59459 -4.3201957,9.12342 -7.0554892,13.26771 -4.1722928,6.30819 -9.2522601,11.77349 -14.8322618,16.65015 4.970319,-5.49621 9.46122539,-11.45738 13.024107,-18.03959 2.3313834,-4.29945 4.1872622,-8.92001 5.917224,-13.59356 1e-6,-1e-5 1e-6,-1e-5 1e-6,-1e-5 1.468874,-3.97877 2.987846,-8.01834 5.204265,-11.74178 2.757489,-4.59915 6.445466,-8.47025 10.490291,-11.8324 4.280568,-3.05637 8.930914,-5.65656 13.757378,-7.68534 3.902663,-1.62855 7.751688,-2.86482 11.421582,-4.31469 10e-7,0 2e-6,0 3e-6,0 4.312075,-1.7068 8.457309,-3.84232 12.379093,-6.44978 6.002196,-3.9871 11.557196,-8.88966 16.934354,-13.97207 z m -4.088398,-4.59252 c -5.661781,4.76473 -11.466232,9.46204 -17.775042,13.39182 -4.142724,2.57754 -8.503414,4.71799 -13.000175,6.42489 0,0 -10e-7,0 -10e-7,0 -3.785388,1.44105 -7.606252,2.62215 -11.212493,4.14215 -4.458038,1.86467 -8.708917,4.3293 -12.635407,7.24739 -4.144389,2.59936 -8.029707,5.61745 -11.159189,9.383 -2.543857,3.04005 -4.6230046,6.65844 -6.7413477,10.33666 -6e-7,0 -1.1e-6,0 -1.7e-6,0 -2.5104339,4.37254 -5.1851094,8.6626 -8.310099,12.52223 -4.7654212,5.87406 -10.3524326,10.82111 -16.3790516,15.13451 5.480683,-4.98861 10.529919,-10.48604 14.7150707,-16.69233 2.7378239,-4.0535 5.033092,-8.47319 7.2076662,-12.95833 5e-7,0 10e-7,0 1.5e-6,-1e-5 1.8474071,-3.81875 3.7503052,-7.69346 6.3172502,-11.185 3.1903634,-4.31078 7.2371084,-7.80507 11.5896574,-10.75782 4.55743,-2.6255 9.438281,-4.76129 14.438233,-6.31298 4.041784,-1.24285 7.99183,-2.10148 11.784818,-3.18986 10e-7,0 2e-6,0 3e-6,0 4.457021,-1.28202 8.790259,-3.00644 12.947144,-5.22169 6.36167,-3.38684 12.367442,-7.72735 18.212963,-12.26463 z"
       transform="matrix(0.66753801,0,0,0.66759778,41.56872,843.92386)"
       sodipodi:start="2.5854595"
       sodipodi:end="8.8654107"
       sodipodi:open="true"
       inkscape:tile-cx="125"
       inkscape:tile-cy="124.99983"
       inkscape:tile-w="250.03405"
       inkscape:tile-h="250.0337"
       inkscape:tile-x0="-0.017024644"
       inkscape:tile-y0="-0.017024644"
       inkscape:path-effect="#path-effect24509" />
    <path
       style="font-size:medium;font-style:normal;font-variant:normal;font-weight:normal;font-stretch:normal;text-indent:0;text-align:start;text-decoration:none;line-height:normal;letter-spacing:normal;word-spacing:normal;text-transform:none;direction:ltr;block-progression:tb;writing-mode:lr-tb;text-anchor:start;baseline-shift:baseline;color:#000000;fill:#000000;fill-opacity:1;stroke:none;stroke-width:5;marker:none;visibility:visible;display:inline;overflow:visible;enable-background:accumulate;font-family:Sans;-inkscape-font-specification:Sans"
       d="m 0,702.375 125,2.5 125,-2.5 -125,-2.5 z"
       id="path24375"
       inkscape:connector-curvature="0"
       sodipodi:nodetypes="ccccc" />
    <path
       style="fill:#000000;stroke:none"
       d="m 125,734.23721 c -7.39827,-0.28785 -14.86082,-0.12376 -22.24527,1.10749 -4.847202,0.8119 -9.597503,2.1667 -14.223021,3.81553 0,0 -1e-6,0 -1e-6,0 -3.896274,1.3838 -7.690284,2.86948 -11.516804,3.7893 -4.722127,1.15028 -9.626669,1.47918 -14.514904,1.28768 -4.888235,0.1915 -9.792777,-0.1374 -14.514904,-1.28768 -3.82652,-0.91982 -7.62053,-2.4055 -11.516804,-3.7893 -10e-7,0 -2e-6,0 -3e-6,0 C 31.842772,737.5114 27.092472,736.1566 22.245272,735.3447 14.860825,734.11345 7.3982681,733.94936 0,734.23721 c 7.3982681,0.28785 14.790138,1.03214 21.895353,2.79876 4.644079,1.15181 9.137801,2.82742 13.511352,4.77822 10e-7,0 2e-6,0 3e-6,0 3.720419,1.66288 7.468797,3.47062 11.530071,4.80445 5.031856,1.63658 10.307161,2.42707 15.563221,2.61857 5.25606,-0.1915 10.531365,-0.98199 15.563221,-2.61857 4.061274,-1.33383 7.809652,-3.14157 11.530071,-4.80445 10e-7,0 2e-6,0 3e-6,0 4.373551,-1.9508 8.867273,-3.62641 13.511355,-4.77822 7.10521,-1.76662 14.49708,-2.51091 21.89535,-2.79876 z"
       id="path24381-0"
       inkscape:connector-curvature="0"
       sodipodi:nodetypes="ccc"
       inkscape:path-effect="#path-effect24420"
       inkscape:original-d="m 125,734.23721 c -37.5,0 -37.5,12.5 -62.5,12.5 -25,0 -25,-12.5 -62.5,-12.5" />
  </g>
</svg>
